<?xml version="1.0" encoding="UTF-8"?>
<svg version="1.1" xmlns="http://www.w3.org/2000/svg" width="3464" height="3464">
<path d="M0 0 C1.74233383 -0.00134774 3.48466737 -0.00313224 5.22700036 -0.00531223 C10.01816239 -0.01003579 14.80930538 -0.00854265 19.60046834 -0.00603446 C24.81181479 -0.00440048 30.02315717 -0.00854298 35.23450232 -0.01194364 C44.3694341 -0.01709759 53.50436058 -0.01851485 62.63929367 -0.01748753 C76.22358233 -0.01596356 89.80786511 -0.02012225 103.39215263 -0.02536215 C129.06551793 -0.03503836 154.73888019 -0.03784712 180.41224688 -0.03841921 C183.24359969 -0.03848396 186.0749525 -0.0385519 188.90630531 -0.03862262 C189.6089278 -0.03863962 190.31155029 -0.03865663 191.03546437 -0.03867415 C206.61065429 -0.03908273 222.18584381 -0.04127308 237.76103353 -0.04377846 C244.17591746 -0.04480684 250.59080139 -0.04579687 257.00568533 -0.04679471 C257.7144948 -0.0469053 258.42330427 -0.04701589 259.15359281 -0.04712983 C299.76978404 -0.05345357 340.385975 -0.05757899 381.00216675 -0.05712128 C382.52200276 -0.0571055 384.04183877 -0.05708976 385.56167478 -0.05707407 C392.4234839 -0.05700069 399.28529302 -0.05691252 406.14710214 -0.05682018 C409.20690376 -0.05677906 412.26670537 -0.05673891 415.32650698 -0.05669887 C416.8579927 -0.05667848 418.38947842 -0.05665746 419.92096414 -0.05663581 C468.33937951 -0.05595569 516.75778755 -0.06327087 565.17620087 -0.07717609 C577.37377419 -0.0806772 589.57134752 -0.0841467 601.7689209 -0.08744049 C602.52000424 -0.08764336 603.27108757 -0.08784624 604.04493101 -0.08805526 C627.20050143 -0.09427194 650.35607124 -0.09803615 673.51164246 -0.09929848 C674.23882809 -0.09933843 674.96601372 -0.09937838 675.71523528 -0.09941954 C691.68015094 -0.10027289 707.64506655 -0.10053399 723.60998223 -0.10024916 C729.32282383 -0.10015268 735.03566542 -0.10010064 740.74850702 -0.10007043 C742.16968361 -0.10006252 743.59086019 -0.10005232 745.01203677 -0.10003981 C767.64047261 -0.09986362 790.26890217 -0.10555629 812.89733621 -0.11419363 C836.32965181 -0.12309233 859.76195534 -0.12466006 883.1942727 -0.1178815 C896.69900177 -0.11418546 910.20370339 -0.11601984 923.70842956 -0.12582384 C932.73292311 -0.13182171 941.75739676 -0.13053049 950.78188939 -0.12335334 C955.92134415 -0.11947023 961.06074578 -0.11870089 966.2001968 -0.12681069 C970.88459923 -0.13413755 975.56890472 -0.13209705 980.25330298 -0.12288683 C981.92882138 -0.12117906 983.60434756 -0.12274902 985.27985801 -0.12818803 C993.74392314 -0.15380251 1002.08828028 0.10311934 1010.5086875 1.01137751 C1011.58292685 1.12607004 1011.58292685 1.12607004 1012.67886801 1.24307958 C1034.72702897 3.86989318 1054.86862676 14.34836354 1068.73381805 31.81613445 C1088.37155243 60.04315011 1095.38998776 98.07978024 1105.39785385 130.49794292 C1110.57619822 147.2700998 1115.80061368 164.02786129 1121.02658463 180.78522778 C1122.05683776 184.08907767 1123.08672858 187.39304047 1124.11663151 190.69699955 C1129.11241608 206.72321964 1134.11263177 222.74804362 1139.12444305 238.76925945 C1139.53984923 240.0972621 1139.9552545 241.42526503 1140.37065887 242.75326824 C1140.78207536 244.06849484 1141.193493 245.38372108 1141.6049118 246.69894695 C1141.80706047 247.34517765 1142.00920914 247.99140835 1142.21748352 248.65722179 C1142.51971706 249.62340309 1142.51971706 249.62340309 1142.82805634 250.6091032 C1143.02912994 251.25190228 1143.23020355 251.89470135 1143.4373703 252.55697918 C1143.84364274 253.85573163 1144.24993346 255.15447837 1144.65624237 256.45321941 C1149.5524515 272.10404813 1154.43292291 287.75960244 1159.28069305 303.42550945 C1159.50643698 304.15499924 1159.7321809 304.88448902 1159.96476555 305.63608456 C1161.80597269 311.58633457 1163.64665734 317.53674623 1165.4871788 323.48720837 C1172.67389401 346.72074524 1179.92811928 369.93224779 1187.23381805 393.12863445 C1193.61956968 413.4043657 1199.97415477 433.68851455 1206.23381805 454.00363445 C1213.0954953 476.27095642 1220.02829116 498.51548832 1226.98381805 520.75363445 C1227.51864932 522.46365626 1228.05348005 524.17367823 1228.58831024 525.88370037 C1228.853769 526.73244543 1229.11922775 527.58119049 1229.39273071 528.4556551 C1230.7408309 532.76590985 1232.08889764 537.07617507 1233.43694305 541.38644695 C1233.70553635 542.24521309 1233.97412964 543.10397923 1234.25086212 543.98876858 C1240.25856967 563.19788653 1246.24759197 582.41281329 1252.23381805 601.62863445 C1254.22712487 608.02712891 1256.22053168 614.42559218 1258.2142868 620.82394695 C1258.45626234 621.60049633 1258.69823788 622.37704571 1258.94754601 623.17712688 C1262.32473847 634.01440223 1265.70788625 644.84980006 1269.0970993 655.68332195 C1269.30400831 656.34474068 1269.51091732 657.0061594 1269.7240963 657.68762112 C1270.75635956 660.98740914 1271.78867962 664.2871794 1272.82100677 667.58694744 C1273.02337574 668.23381763 1273.22574471 668.88068783 1273.43424606 669.54716015 C1273.8420404 670.85066553 1274.24984424 672.15416793 1274.65765762 673.45766735 C1279.55346431 689.1069914 1284.43338299 704.76108922 1289.28069305 720.42550945 C1289.50643698 721.15499924 1289.7321809 721.88448902 1289.96476555 722.63608456 C1291.80597269 728.58633457 1293.64665734 734.53674623 1295.4871788 740.48720837 C1302.67389401 763.72074524 1309.92811928 786.93224779 1317.23381805 810.12863445 C1323.61956968 830.4043657 1329.97415477 850.68851455 1336.23381805 871.00363445 C1343.0954953 893.27095642 1350.02829116 915.51548832 1356.98381805 937.75363445 C1357.51864932 939.46365626 1358.05348005 941.17367823 1358.58831024 942.88370037 C1358.853769 943.73244543 1359.11922775 944.58119049 1359.39273071 945.4556551 C1360.7408309 949.76590985 1362.08889764 954.07617507 1363.43694305 958.38644695 C1363.70553635 959.24521309 1363.97412964 960.10397923 1364.25086212 960.98876858 C1370.25856967 980.19788653 1376.24759197 999.41281329 1382.23381805 1018.62863445 C1384.22712487 1025.02712891 1386.22053168 1031.42559218 1388.2142868 1037.82394695 C1388.45626234 1038.60049633 1388.69823788 1039.37704571 1388.94754601 1040.17712688 C1392.32473847 1051.01440223 1395.70788625 1061.84980006 1399.0970993 1072.68332195 C1399.30400831 1073.34474068 1399.51091732 1074.0061594 1399.7240963 1074.68762112 C1400.75635956 1077.98740914 1401.78867962 1081.2871794 1402.82100677 1084.58694744 C1403.02337574 1085.23381763 1403.22574471 1085.88068783 1403.43424606 1086.54716015 C1403.8420404 1087.85066553 1404.24984424 1089.15416793 1404.65765762 1090.45766735 C1409.5534643 1106.10699137 1414.43339097 1121.76108677 1419.28069305 1137.42550945 C1419.50641621 1138.15493692 1419.73213936 1138.8843644 1419.96470261 1139.63589573 C1421.80605532 1145.58666248 1423.64686689 1151.53759665 1425.48762512 1157.48854733 C1432.65511212 1180.6585679 1439.88701924 1203.80758069 1447.17131805 1226.94113445 C1453.75343937 1247.84538828 1460.31087369 1268.75661755 1466.79631805 1289.69113445 C1467.33159119 1291.41892132 1467.33159119 1291.41892132 1467.87767792 1293.18161297 C1468.23706451 1294.34168865 1468.59645111 1295.50176434 1468.96672821 1296.69699383 C1469.70676958 1299.08567507 1470.4468416 1301.47434682 1471.18694305 1303.86300945 C1471.56035828 1305.06820232 1471.9337735 1306.2733952 1472.31850433 1307.51510906 C1477.37560108 1323.82964685 1482.46195542 1340.13507806 1487.54631805 1356.44113445 C1488.05553548 1358.07431282 1488.56475179 1359.70749153 1489.07396698 1361.34067059 C1491.13226535 1367.94204748 1493.19065307 1374.54339649 1495.24922943 1381.1446867 C1498.60711421 1391.9126688 1501.96357432 1402.681094 1505.31889343 1413.44987583 C1507.60291058 1420.78033413 1509.88710907 1428.11073593 1512.17131805 1435.44113445 C1512.42154724 1436.24417381 1512.67177643 1437.04721317 1512.92958832 1437.87458706 C1518.31283398 1455.15033314 1523.69845463 1472.42532069 1529.10100555 1489.6950407 C1529.51790634 1491.0277789 1529.93480697 1492.36051714 1530.35170746 1493.69325542 C1531.17513355 1496.32549611 1531.99857235 1498.95773282 1532.82201385 1501.58996868 C1533.02419777 1502.23628372 1533.22638168 1502.88259876 1533.43469238 1503.54849911 C1533.842266 1504.85135741 1534.24985367 1506.15421132 1534.65745544 1507.45706081 C1539.55329326 1523.10659852 1544.43332791 1538.76088299 1549.28069305 1554.42550945 C1549.50641621 1555.15493692 1549.73213936 1555.8843644 1549.96470261 1556.63589573 C1551.80605532 1562.58666248 1553.64686689 1568.53759665 1555.48762512 1574.48854733 C1563.10698766 1599.11932612 1570.80456742 1623.72468744 1578.54918671 1648.31634808 C1585.79547439 1671.32616774 1592.98175138 1694.3538656 1600.11370087 1717.39938641 C1600.45878693 1718.51397732 1600.80387299 1719.62856823 1601.1594162 1720.77693462 C1601.82255012 1722.91966035 1602.48497044 1725.06260707 1603.14659882 1727.20579815 C1604.65442508 1732.0816848 1606.17928112 1736.95065232 1607.74944305 1741.80685711 C1608.03271454 1742.68674801 1608.31598602 1743.56663891 1608.60784149 1744.47319317 C1609.1320214 1746.09618244 1609.66095737 1747.71764716 1610.19573212 1749.33717632 C1611.31566877 1752.80835481 1611.92131805 1755.4406689 1611.92131805 1759.12863445 C1615.88131805 1758.79863445 1619.84131805 1758.46863445 1623.92131805 1758.12863445 C1628.7556167 1742.02475747 1633.58886867 1725.92056646 1638.42131805 1709.81613445 C1638.79073517 1708.58502941 1639.16015228 1707.35392437 1639.54076385 1706.08551311 C1650.68698421 1668.93900305 1661.81458512 1631.78697342 1672.92131805 1594.62863445 C1684.07774218 1557.30421057 1695.25865788 1519.98721166 1706.45775604 1482.67557049 C1716.96578173 1447.66594065 1727.45318707 1412.65021334 1737.92131805 1377.62863445 C1749.0777781 1340.3042213 1760.25865786 1302.9872117 1771.45775604 1265.67557049 C1781.96578173 1230.66594065 1792.45318707 1195.65021334 1802.92131805 1160.62863445 C1814.0777781 1123.3042213 1825.25865786 1085.9872117 1836.45775604 1048.67557049 C1846.96578173 1013.66594065 1857.45318707 978.65021334 1867.92131805 943.62863445 C1879.0777781 906.3042213 1890.25865786 868.9872117 1901.45775604 831.67557049 C1911.96578173 796.66594065 1922.45318707 761.65021334 1932.92131805 726.62863445 C1944.0777781 689.3042213 1955.25865786 651.9872117 1966.45775604 614.67557049 C1976.96578173 579.66594065 1987.45318707 544.65021334 1997.92131805 509.62863445 C2009.0777781 472.3042213 2020.25865786 434.9872117 2031.45775604 397.67557049 C2042.62721991 360.46222451 2053.77163689 323.24146312 2064.89797211 286.01520061 C2072.45151873 260.74316493 2080.01394117 235.47383371 2087.5970993 210.2106657 C2087.95691832 209.01180422 2088.31673733 207.81294273 2088.68745995 206.57775211 C2092.25275283 194.69877947 2095.81902878 182.82010431 2099.38924313 170.94260979 C2108.38950385 141.00271647 2108.38950385 141.00271647 2117.24588203 111.02004719 C2117.92452661 108.70229 2118.60443563 106.3849076 2119.28476715 104.06764507 C2119.71532982 102.60059935 2120.14585735 101.1335433 2120.57634735 99.66647625 C2120.88534234 98.61348481 2120.88534234 98.61348481 2121.20057964 97.53922081 C2122.52705541 93.01367758 2123.83707363 88.48357601 2125.14324188 83.95212078 C2130.10202584 66.91297811 2135.31325922 49.60910415 2145.92131805 35.12863445 C2146.5245993 34.28172039 2147.12788055 33.43480633 2147.74944305 32.5622282 C2161.03849487 14.87050271 2181.29344773 4.72676302 2202.86385536 1.51530457 C2219.72860541 -0.84094688 2236.8478385 -0.28974133 2253.83549093 -0.25056685 C2259.01499994 -0.24198469 2264.19448528 -0.25097241 2269.37399304 -0.257631 C2278.43436345 -0.26689112 2287.49467827 -0.26509845 2296.55504799 -0.25589848 C2310.02815078 -0.24225555 2323.50121117 -0.24587822 2336.97431709 -0.25285708 C2359.64669278 -0.26407589 2382.31904032 -0.26114276 2404.99141312 -0.24968624 C2427.44148118 -0.23835901 2449.89153891 -0.23240048 2472.34160995 -0.23387432 C2473.75349109 -0.23395972 2475.16537223 -0.2340446 2476.57725337 -0.23412896 C2482.25142831 -0.23447682 2487.92560326 -0.23486192 2493.5997782 -0.23529454 C2509.459329 -0.23648894 2525.31887973 -0.23667114 2541.17843056 -0.23609161 C2542.26156781 -0.23605257 2542.26156781 -0.23605257 2543.36658662 -0.23601275 C2566.36216192 -0.2351146 2589.357734 -0.2298206 2612.35330772 -0.22138405 C2613.09873842 -0.22111086 2613.84416912 -0.22083767 2614.61218863 -0.22055621 C2626.71638512 -0.21610289 2638.82058152 -0.21138795 2650.92477791 -0.20665732 C2698.94218345 -0.18790743 2746.95957325 -0.18149517 2794.97698212 -0.18703938 C2798.01236208 -0.18738636 2801.04774204 -0.18773198 2804.083122 -0.18807767 C2805.20886415 -0.18820607 2805.20886415 -0.18820607 2806.35734857 -0.18833707 C2814.66922895 -0.18928324 2822.98110934 -0.19019496 2831.29298973 -0.19106483 C2832.03840892 -0.19114375 2832.7838281 -0.19122267 2833.55183574 -0.19130398 C2873.80733532 -0.1955278 2914.06283314 -0.1902198 2954.31833184 -0.18155354 C2955.73775204 -0.18125026 2957.15717224 -0.18094736 2958.57659245 -0.18064485 C2959.62906205 -0.18042046 2959.62906205 -0.18042046 2960.70279368 -0.18019154 C2962.1183176 -0.17989012 2963.53384151 -0.17958913 2964.94936543 -0.17928857 C2968.47569535 -0.17853973 2972.00202526 -0.17778374 2975.52835517 -0.1770124 C2990.97663612 -0.17366591 3006.42491577 -0.17159389 3021.87319708 -0.17294812 C3022.56874651 -0.17300866 3023.26429595 -0.1730692 3023.98092264 -0.17313158 C3027.48264365 -0.17344353 3030.98436466 -0.17377695 3034.48608567 -0.1741179 C3059.8081457 -0.1765702 3085.13018826 -0.17248876 3110.45224528 -0.15690789 C3123.84192142 -0.14885892 3137.23157201 -0.14625522 3150.62124968 -0.15155025 C3159.56607783 -0.15452812 3168.51088341 -0.15022256 3177.45570616 -0.14000167 C3182.55108543 -0.13437817 3187.64641264 -0.13186533 3192.74179231 -0.13816825 C3197.3837167 -0.14384099 3202.02554028 -0.14020457 3206.66745465 -0.12936948 C3208.32980868 -0.12707599 3209.99217163 -0.12806791 3211.65452024 -0.13289202 C3230.75582758 -0.18410969 3251.60738165 0.45024627 3266.73381805 13.7184782 C3273.65119573 21.06819198 3276.11587104 30.94044325 3276.23381805 40.75363445 C3276.26282196 41.50386883 3276.29182587 42.2541032 3276.32170868 43.02707195 C3276.51368281 61.10217477 3268.34098519 78.61392437 3262.10881805 95.19113445 C3261.15385957 97.75045115 3260.20194989 100.31089875 3259.24993134 102.87131023 C3256.90676527 109.16727818 3254.55063209 115.45829648 3252.18993378 121.74771404 C3250.72492188 125.65203948 3249.26411295 129.55792476 3247.80391693 133.46405315 C3245.1102488 140.66909799 3242.40706114 147.87052233 3239.6986618 155.0700407 C3235.39325114 166.51757966 3231.12597867 177.97929434 3226.85881805 189.44113445 C3226.05918187 191.58876029 3225.2595399 193.73638397 3224.45989227 195.88400555 C3223.22833753 199.19163264 3221.99679157 202.49926299 3220.76531219 205.80691814 C3216.05517544 218.45692816 3211.33816951 231.10437565 3206.62125778 243.75186062 C3199.55105212 262.70946005 3192.48379832 281.66815557 3185.42131805 300.62863445 C3178.35778625 319.59193638 3171.28917345 338.55333995 3164.21825409 357.51388836 C3157.61606072 375.2176071 3151.01663023 392.92235104 3144.42131805 410.62863445 C3137.35778625 429.59193638 3130.28917345 448.55333995 3123.21825409 467.51388836 C3116.61606072 485.2176071 3110.01663023 502.92235104 3103.42131805 520.62863445 C3096.35778625 539.59193638 3089.28917345 558.55333995 3082.21825409 577.51388836 C3075.61606072 595.2176071 3069.01663023 612.92235104 3062.42131805 630.62863445 C3055.35778625 649.59193638 3048.28917345 668.55333995 3041.21825409 687.51388836 C3034.61606072 705.2176071 3028.01663023 722.92235104 3021.42131805 740.62863445 C3014.35778625 759.59193638 3007.28917345 778.55333995 3000.21825409 797.51388836 C2993.61606072 815.2176071 2987.01663023 832.92235104 2980.42131805 850.62863445 C2973.35778625 869.59193638 2966.28917345 888.55333995 2959.21825409 907.51388836 C2952.61606072 925.2176071 2946.01663023 942.92235104 2939.42131805 960.62863445 C2932.35778625 979.59193638 2925.28917345 998.55333995 2918.21825409 1017.51388836 C2911.61606072 1035.2176071 2905.01663023 1052.92235104 2898.42131805 1070.62863445 C2891.35778625 1089.59193638 2884.28917345 1108.55333995 2877.21825409 1127.51388836 C2870.61606072 1145.2176071 2864.01663023 1162.92235104 2857.42131805 1180.62863445 C2850.35778625 1199.59193638 2843.28917345 1218.55333995 2836.21825409 1237.51388836 C2829.61606072 1255.2176071 2823.01663023 1272.92235104 2816.42131805 1290.62863445 C2809.35778625 1309.59193638 2802.28917345 1328.55333995 2795.21825409 1347.51388836 C2788.61606072 1365.2176071 2782.01663023 1382.92235104 2775.42131805 1400.62863445 C2768.35778625 1419.59193638 2761.28917345 1438.55333995 2754.21825409 1457.51388836 C2747.61606072 1475.2176071 2741.01663023 1492.92235104 2734.42131805 1510.62863445 C2727.35778625 1529.59193638 2720.28917345 1548.55333995 2713.21825409 1567.51388836 C2706.61606072 1585.2176071 2700.01663023 1602.92235104 2693.42131805 1620.62863445 C2686.35778625 1639.59193638 2679.28917345 1658.55333995 2672.21825409 1677.51388836 C2665.61606072 1695.2176071 2659.01663023 1712.92235104 2652.42131805 1730.62863445 C2645.35778625 1749.59193638 2638.28917345 1768.55333995 2631.21825409 1787.51388836 C2624.61606072 1805.2176071 2618.01663023 1822.92235104 2611.42131805 1840.62863445 C2604.35778625 1859.59193638 2597.28917345 1878.55333995 2590.21825409 1897.51388836 C2583.61606072 1915.2176071 2577.01663023 1932.92235104 2570.42131805 1950.62863445 C2563.35778625 1969.59193638 2556.28917345 1988.55333995 2549.21825409 2007.51388836 C2542.61606072 2025.2176071 2536.01663023 2042.92235104 2529.42131805 2060.62863445 C2522.35778625 2079.59193638 2515.28917345 2098.55333995 2508.21825409 2117.51388836 C2501.61606072 2135.2176071 2495.01663023 2152.92235104 2488.42131805 2170.62863445 C2481.35778625 2189.59193638 2474.28917345 2208.55333995 2467.21825409 2227.51388836 C2460.61606072 2245.2176071 2454.01663023 2262.92235104 2447.42131805 2280.62863445 C2440.35778625 2299.59193638 2433.28917345 2318.55333995 2426.21825409 2337.51388836 C2419.61606072 2355.2176071 2413.01663023 2372.92235104 2406.42131805 2390.62863445 C2399.35778625 2409.59193638 2392.28917345 2428.55333995 2385.21825409 2447.51388836 C2378.61606072 2465.2176071 2372.01663023 2482.92235104 2365.42131805 2500.62863445 C2358.35778625 2519.59193638 2351.28917345 2538.55333995 2344.21825409 2557.51388836 C2337.61606072 2575.2176071 2331.01663023 2592.92235104 2324.42131805 2610.62863445 C2317.35778625 2629.59193638 2310.28917345 2648.55333995 2303.21825409 2667.51388836 C2296.61606072 2685.2176071 2290.01663023 2702.92235104 2283.42131805 2720.62863445 C2276.35778625 2739.59193638 2269.28917345 2758.55333995 2262.21825409 2777.51388836 C2255.61606072 2795.2176071 2249.01663023 2812.92235104 2242.42131805 2830.62863445 C2235.35778625 2849.59193638 2228.28917345 2868.55333995 2221.21825409 2887.51388836 C2214.61606072 2905.2176071 2208.01663023 2922.92235104 2201.42131805 2940.62863445 C2195.29301473 2957.08114992 2189.16149317 2973.53246167 2183.02682495 2989.98260498 C2181.39453507 2994.35960747 2179.76238217 2998.73666102 2178.13030243 3003.11374187 C2177.67208099 3004.34264645 2177.21385956 3005.57155102 2176.74175262 3006.83769512 C2175.82142017 3009.30594529 2174.90109138 3011.77419684 2173.9807663 3014.24244976 C2171.33841174 3021.32887946 2168.69539812 3028.41506288 2166.05187225 3035.50105572 C2164.40671076 3039.91136572 2162.7621236 3044.32188971 2161.11772919 3048.73248577 C2160.32455444 3050.85969692 2159.53118104 3052.98683402 2158.73760223 3055.11389446 C2154.75374137 3065.79303396 2150.78407596 3076.47675649 2146.87444305 3087.18332195 C2146.5560849 3088.0536758 2146.23772675 3088.92402966 2145.90972137 3089.82075787 C2144.44891116 3093.81476128 2142.99235948 3097.81016821 2141.54631805 3101.80954266 C2132.16614832 3127.59593681 2121.28510859 3151.134873 2095.92131805 3164.50363445 C2079.44910175 3172.13604882 2062.55325201 3173.44119972 2044.65770626 3173.38031673 C2043.0780134 3173.38240874 2041.4983215 3173.38537547 2039.9186317 3173.38912547 C2035.60701951 3173.3968571 2031.29549783 3173.39228364 2026.98388724 3173.38556956 C2022.28201873 3173.3804703 2017.5801635 3173.38702619 2012.87829691 3173.39205623 C2004.6472816 3173.39926343 1996.41629254 3173.39907042 1988.18527603 3173.39396191 C1975.94535751 3173.386386 1963.70546107 3173.39027011 1951.46554269 3173.39637852 C1929.60327865 3173.40690314 1907.74102632 3173.40599997 1885.87876117 3173.4002207 C1866.74726544 3173.39518817 1847.61577399 3173.39387685 1828.48427773 3173.39626598 C1827.21488809 3173.39641875 1825.94549845 3173.39657152 1824.63764246 3173.39672892 C1819.48469447 3173.39735161 1814.33174649 3173.39798841 1809.17879851 3173.39864845 C1773.22166058 3173.40319933 1737.26452471 3173.40400533 1701.30738735 3173.39652157 C1700.63002928 3173.39638107 1699.95267121 3173.39624057 1699.25478713 3173.39609582 C1688.25562019 3173.39380605 1677.25645328 3173.39136706 1666.25728637 3173.38891547 C1622.63349269 3173.37920258 1579.00971129 3173.37965446 1535.38591766 3173.38937664 C1524.39104685 3173.39181911 1513.39617604 3173.39424124 1502.4013052 3173.39652157 C1501.38575506 3173.39673291 1501.38575506 3173.39673291 1500.34968875 3173.39694853 C1463.78451661 3173.40450585 1427.21934557 3173.40283606 1390.65417296 3173.39815211 C1385.51096285 3173.39751068 1380.36775273 3173.396885 1375.22454262 3173.39626598 C1373.95816583 3173.39610783 1372.69178904 3173.39594967 1371.38703719 3173.39578673 C1352.26738362 3173.39351223 1333.14773481 3173.39617149 1314.02808189 3173.40122509 C1292.28796927 3173.40694268 1270.54787016 3173.40551586 1248.80775922 3173.3946636 C1236.64210505 3173.38879099 1224.47648016 3173.38840777 1212.31082675 3173.39595595 C1204.18296262 3173.40044256 1196.05512196 3173.39764622 1187.92726132 3173.38894641 C1183.29756574 3173.38419253 1178.66792831 3173.38255459 1174.03823458 3173.38975838 C1169.81995909 3173.39625497 1165.60179293 3173.39342263 1161.38352529 3173.38339706 C1159.8733957 3173.38139585 1158.3632569 3173.38268003 1156.8531347 3173.38780893 C1142.05733054 3173.43446307 1128.54333873 3172.37278734 1114.92131805 3166.12863445 C1113.98674774 3165.70840008 1113.05217743 3165.2881657 1112.0892868 3164.85519695 C1085.81125566 3151.84775951 1075.93539079 3124.51065262 1066.97429657 3098.57516766 C1062.69522498 3086.20421231 1058.1647462 3073.9391477 1053.54631805 3061.69113445 C1052.78324436 3059.66527546 1052.0202243 3057.63939626 1051.25725555 3055.61349773 C1050.06647403 3052.45206255 1048.87554703 3049.29068276 1047.68404388 3046.12951946 C1042.98764256 3033.66357025 1038.33591979 3021.18099107 1033.68501282 3008.69801235 C1032.74701439 3006.18059692 1031.80873488 3003.66328629 1030.8704567 3001.14597511 C1027.88659054 2993.14050035 1024.90385332 2985.13460515 1021.92131805 2977.12863445 C1021.0969411 2974.91590489 1020.27255973 2972.70317697 1019.44817352 2970.49045086 C1016.33361912 2962.13058636 1013.21918946 2953.77067542 1010.10515594 2945.41061687 C1004.04753991 2929.14858967 997.98503521 2912.88838752 991.92131805 2896.62863445 C984.69877054 2877.26149776 977.47958127 2857.89311484 970.26457977 2838.5231657 C963.82064139 2821.22356523 957.37189997 2803.92575869 950.92131805 2786.62863445 C943.69877054 2767.26149776 936.47958127 2747.89311484 929.26457977 2728.5231657 C922.82064139 2711.22356523 916.37189997 2693.92575869 909.92131805 2676.62863445 C902.69877054 2657.26149776 895.47958127 2637.89311484 888.26457977 2618.5231657 C881.82064139 2601.22356523 875.37189997 2583.92575869 868.92131805 2566.62863445 C861.69877054 2547.26149776 854.47958127 2527.89311484 847.26457977 2508.5231657 C840.82064139 2491.22356523 834.37189997 2473.92575869 827.92131805 2456.62863445 C820.69877054 2437.26149776 813.47958127 2417.89311484 806.26457977 2398.5231657 C799.82064139 2381.22356523 793.37189997 2363.92575869 786.92131805 2346.62863445 C779.69877054 2327.26149776 772.47958127 2307.89311484 765.26457977 2288.5231657 C758.82064139 2271.22356523 752.37189997 2253.92575869 745.92131805 2236.62863445 C738.69877054 2217.26149776 731.47958127 2197.89311484 724.26457977 2178.5231657 C718.05455369 2161.85153358 711.8401789 2145.18152608 705.62377548 2128.51227093 C698.49089058 2109.38547172 691.35988634 2090.25797453 684.23381805 2071.12863445 C683.84626343 2070.08828045 683.4587088 2069.04792645 683.0594101 2067.97604656 C679.96109692 2059.65880416 676.86301526 2051.34147552 673.76494598 2043.02414227 C671.04634739 2035.72559842 668.32765257 2028.42709042 665.60881805 2021.12863445 C665.22150513 2020.08892498 664.8341922 2019.04921551 664.43514252 2017.97799969 C657.46619345 1999.27095204 650.49182687 1980.56592609 643.51638031 1961.86130047 C636.76219766 1943.74992232 630.011756 1925.63715507 623.26457977 1907.5231657 C616.82064139 1890.22356523 610.37189997 1872.92575869 603.92131805 1855.62863445 C596.69877054 1836.26149776 589.47958127 1816.89311484 582.26457977 1797.5231657 C575.82064139 1780.22356523 569.37189997 1762.92575869 562.92131805 1745.62863445 C555.69877054 1726.26149776 548.47958127 1706.89311484 541.26457977 1687.5231657 C534.82064139 1670.22356523 528.37189997 1652.92575869 521.92131805 1635.62863445 C514.69877054 1616.26149776 507.47958127 1596.89311484 500.26457977 1577.5231657 C493.82064139 1560.22356523 487.37189997 1542.92575869 480.92131805 1525.62863445 C473.69877054 1506.26149776 466.47958127 1486.89311484 459.26457977 1467.5231657 C452.82064139 1450.22356523 446.37189997 1432.92575869 439.92131805 1415.62863445 C432.69877054 1396.26149776 425.47958127 1376.89311484 418.26457977 1357.5231657 C411.82064139 1340.22356523 405.37189997 1322.92575869 398.92131805 1305.62863445 C391.69877054 1286.26149776 384.47958127 1266.89311484 377.26457977 1247.5231657 C370.82064139 1230.22356523 364.37189997 1212.92575869 357.92131805 1195.62863445 C350.69877054 1176.26149776 343.47958127 1156.89311484 336.26457977 1137.5231657 C329.82064139 1120.22356523 323.37189997 1102.92575869 316.92131805 1085.62863445 C309.69877054 1066.26149776 302.47958127 1046.89311484 295.26457977 1027.5231657 C288.82064139 1010.22356523 282.37189997 992.92575869 275.92131805 975.62863445 C268.69877054 956.26149776 261.47958127 936.89311484 254.26457977 917.5231657 C247.82064139 900.22356523 241.37189997 882.92575869 234.92131805 865.62863445 C227.69877054 846.26149776 220.47958127 826.89311484 213.26457977 807.5231657 C206.82064139 790.22356523 200.37189997 772.92575869 193.92131805 755.62863445 C186.69877054 736.26149776 179.47958127 716.89311484 172.26457977 697.5231657 C165.82064139 680.22356523 159.37189997 662.92575869 152.92131805 645.62863445 C145.69877054 626.26149776 138.47958127 606.89311484 131.26457977 587.5231657 C124.82064139 570.22356523 118.37189997 552.92575869 111.92131805 535.62863445 C104.69877054 516.26149776 97.47958127 496.89311484 90.26457977 477.5231657 C83.82064139 460.22356523 77.37189997 442.92575869 70.92131805 425.62863445 C63.69877054 406.26149776 56.47958127 386.89311484 49.26457977 367.5231657 C42.82064139 350.22356523 36.37189997 332.92575869 29.92131805 315.62863445 C22.69877054 296.26149776 15.47958127 276.89311484 8.26457977 257.5231657 C1.82064139 240.22356523 -4.62810003 222.92575869 -11.07868195 205.62863445 C-16.36159722 191.46258817 -21.64432702 177.29647389 -26.92243195 163.12863445 C-27.50444366 161.56660793 -27.50444366 161.56660793 -28.0982132 159.97302532 C-30.02039514 154.81374071 -31.94134315 149.65400249 -33.85993195 144.49338055 C-37.72234042 134.10865134 -41.60108358 123.73041465 -45.51215363 113.36392498 C-47.29315378 108.64285968 -49.06862674 103.91972081 -50.8429718 99.19615078 C-52.30693327 95.30036573 -53.77794099 91.40734268 -55.25444031 87.51629353 C-56.38998313 84.51716925 -57.51466168 81.5139695 -58.64118195 78.51144695 C-59.24923676 76.91932888 -59.24923676 76.91932888 -59.8695755 75.29504681 C-63.92085189 64.43579924 -66.6616244 53.70117571 -66.57868195 42.06613445 C-66.57296173 41.11657879 -66.56724152 40.16702312 -66.56134796 39.18869305 C-66.37040612 31.67574216 -65.15943593 25.56366958 -61.07868195 19.12863445 C-60.61719757 18.38742352 -60.1557132 17.64621258 -59.68024445 16.8825407 C-52.31089704 6.98816309 -38.77054631 2.91260437 -27.07868195 1.12863445 C-18.07651073 -0.1134315 -9.06490119 -0.01210934 0 0 Z " fill="#FEFEFE" transform="translate(101.07868194580078,135.87136554718018)"/>
<path d="M0 0 C7.4824483 -0.09686017 13.392191 2.1288887 20.0390625 5.46875 C20.5340625 5.96375 20.5340625 5.96375 21.0390625 6.46875 C20.69181214 9.94125356 20.29897669 13.31021776 19.53515625 16.71484375 C18.87245938 20.39359411 18.6798165 24.05270529 18.4765625 27.78125 C18.41178711 28.89209961 18.41178711 28.89209961 18.34570312 30.02539062 C18.24035818 31.83966464 18.13927934 33.6541855 18.0390625 35.46875 C21.95515092 35.11291532 25.86922194 34.74012375 29.78222656 34.35180664 C31.7654264 34.15855323 33.74990849 33.978609 35.734375 33.79882812 C36.98476562 33.67314453 38.23515625 33.54746094 39.5234375 33.41796875 C40.67553711 33.30799561 41.82763672 33.19802246 43.01464844 33.0847168 C46.19875123 32.43622702 47.56175707 31.47172129 50.0390625 29.46875 C54.80208233 29.61559914 57.64500935 31.22992671 61.4140625 34.03125 C62.28804687 34.67191406 63.16203125 35.31257813 64.0625 35.97265625 C64.71476562 36.46636719 65.36703125 36.96007813 66.0390625 37.46875 C65.9140625 39.15625 65.9140625 39.15625 65.0390625 41.46875 C64.09933594 42.20222656 63.15960937 42.93570313 62.19140625 43.69140625 C58.28611748 46.74878264 57.14906888 50.31277326 55.6015625 54.90625 C55.01009135 56.52653044 54.4136704 58.14501192 53.8125 59.76171875 C53.51698242 60.56013184 53.22146484 61.35854492 52.91699219 62.18115234 C41.73766005 91.31083592 17.98158326 113.88736991 -9.7109375 127.40625 C-14.53528763 129.50410064 -18.70724843 130.30196622 -23.9609375 130.46875 C-24.6209375 130.13875 -25.2809375 129.80875 -25.9609375 129.46875 C-26.30512865 126.37102967 -26.33570378 124.9516578 -24.390625 122.4453125 C-21.34363539 119.96657175 -18.60237353 119.18423764 -14.8359375 118.09375 C7.60931416 111.11679225 25.33400331 92.00896412 36.35351562 71.72070312 C41.30675352 62.09533086 44.22165949 51.88460355 47.0390625 41.46875 C46.11275024 41.69292603 46.11275024 41.69292603 45.16772461 41.92163086 C40.78999683 42.68717811 36.4122706 42.93653138 31.98046875 43.22265625 C30.99972885 43.28782944 30.01898895 43.35300262 29.00852966 43.42015076 C26.93166008 43.55710362 24.85467545 43.69232144 22.77758789 43.82592773 C19.64362868 44.02853052 16.51030996 44.23948194 13.37695312 44.45117188 C2.91438053 45.14167478 -7.47091608 45.70603931 -17.9609375 45.46875 C-17.79489014 46.2894397 -17.79489014 46.2894397 -17.62548828 47.12670898 C-15.70780481 56.68220043 -13.84015679 66.22085569 -12.7109375 75.90625 C-12.59129639 76.92319946 -12.59129639 76.92319946 -12.46923828 77.96069336 C-11.31421599 88.56795932 -11.31421599 88.56795932 -13.7109375 91.90625 C-15.9609375 93.46875 -15.9609375 93.46875 -17.96484375 93.27734375 C-20.47254151 92.26150532 -20.97623271 91.51471173 -22.1484375 89.09375 C-24.43550876 83.5090411 -24.41268322 77.93246244 -24.6027832 71.98730469 C-25.23064525 53.39686192 -25.23064525 53.39686192 -32.26171875 36.84765625 C-34.30775092 35.1873129 -36.13417082 34.5464616 -38.6484375 33.78125 C-39.86080078 33.40419922 -39.86080078 33.40419922 -41.09765625 33.01953125 C-41.71253906 32.83777344 -42.32742188 32.65601562 -42.9609375 32.46875 C-43.2909375 30.81875 -43.6209375 29.16875 -43.9609375 27.46875 C-39.42034187 24.81084036 -36.22021344 23.89501081 -30.9609375 24.46875 C-26.00912916 26.59095358 -22.3635414 30.66354221 -19.9609375 35.46875 C-6.1009375 35.96375 -6.1009375 35.96375 8.0390625 36.46875 C7.9771875 32.570625 7.9153125 28.6725 7.8515625 24.65625 C7.84487549 23.43059326 7.83818848 22.20493652 7.83129883 20.94213867 C7.80318115 19.9751001 7.77506348 19.00806152 7.74609375 18.01171875 C7.7303833 17.02196045 7.71467285 16.03220215 7.69848633 15.01245117 C7.26458359 12.25308782 7.26458359 12.25308782 4.66674805 10.6809082 C2.05585869 9.42153833 2.05585869 9.42153833 -0.7109375 8.53125 C-2.9609375 7.46875 -2.9609375 7.46875 -3.8984375 5.53125 C-3.99092176 2.47926955 -3.04258953 0.72731224 0 0 Z " fill="#070707" transform="translate(1260.9609375,3044.53125)"/>
<path d="M0 0 C11.60175753 2.76365929 11.60175753 2.76365929 14.85546875 5.640625 C16.49463451 9.01965613 16.48806531 12.31690625 16.5625 16 C16.83157813 23.13172027 17.6083501 29.98770583 19 37 C19.99902344 36.55269531 20.99804688 36.10539062 22.02734375 35.64453125 C25.79126743 34.0346546 29.62895502 32.8098068 33.5625 31.6875 C34.27631836 31.47875244 34.99013672 31.27000488 35.72558594 31.05493164 C40.07489032 29.79541086 44.44016605 28.61695197 48.82421875 27.484375 C49.80769287 27.22696533 50.79116699 26.96955566 51.80444336 26.7043457 C53.73338298 26.2021659 55.66514917 25.71069228 57.59985352 25.23120117 C62.67884776 23.90570643 66.0267281 22.5812223 70 19 C76.06512655 17.8107595 79.91023746 20.27561033 84.9609375 23.296875 C87.21456304 25.17921357 87.6635655 26.13407645 88 29 C87.443125 29.38929688 86.88625 29.77859375 86.3125 30.1796875 C80.06943183 34.75653139 75.65597128 39.86380664 71 46 C54.94690969 66.10225978 54.94690969 66.10225978 48 71 C45.1875 70.75 45.1875 70.75 43 70 C43.51762977 65.90150678 44.53942617 64.02890496 47.4375 61.125 C51.11170502 57.1737454 54.15971708 53.0508318 57.125 48.5625 C57.52001709 47.96646973 57.91503418 47.37043945 58.32202148 46.75634766 C61.69524674 41.59337534 64.85148813 36.30208322 68 31 C63.82274955 32.20707894 59.64593497 33.41565233 55.46948242 34.62548828 C54.05488175 35.03505801 52.64017189 35.44425084 51.2253418 35.85302734 C49.16685076 36.44784868 47.10872232 37.04390383 45.05078125 37.640625 C44.37403351 37.83660278 43.69728577 38.03258057 43.00003052 38.23449707 C37.49443669 39.83702005 32.02379487 41.5417954 26.56323242 43.29199219 C24 44 24 44 21 44 C24.78466759 58.87034886 28.5820068 73.73155636 32.75 88.5 C33.03697754 89.5209375 33.32395508 90.541875 33.61962891 91.59375 C34.83570931 95.91065817 36.06334255 100.22330747 37.32421875 104.52734375 C41.20425501 117.99851741 41.20425501 117.99851741 40 125 C38 128 38 128 35.6875 128.6875 C32.38137401 127.84174684 32.03438798 127.00114365 30.25 124.1875 C27.63287127 119.64065293 26.93848068 116.16269853 26.8125 110.9375 C26.04821273 95.03429092 21.07125067 79.09285442 16.64941406 63.86987305 C15.22202283 58.95391323 14.06210404 54.00737197 13 49 C9.35890073 49.64916588 5.99371433 50.61728494 2.5078125 51.84765625 C1.47269531 52.20537109 0.43757813 52.56308594 -0.62890625 52.93164062 C-2.78722345 53.68354535 -4.94350077 54.44133209 -7.09765625 55.20507812 C-13.81514548 57.51238964 -19.21699696 59.35740306 -26.16796875 56.86328125 C-27.16441406 56.35152344 -28.16085937 55.83976562 -29.1875 55.3125 C-30.19167969 54.81363281 -31.19585938 54.31476562 -32.23046875 53.80078125 C-35.25391027 51.83490461 -37.0079604 49.99499225 -39 47 C-39.75 43.1875 -39.75 43.1875 -40 40 C-34.08912802 38.05928218 -30.12924002 41.03427365 -24.86328125 43.65234375 C-16.51657049 47.06991196 -8.10464556 44.56598499 0.125 42 C1.55972656 41.57074219 1.55972656 41.57074219 3.0234375 41.1328125 C5.35292777 40.43396542 7.67790687 39.7229702 10 39 C9.24394427 35.43419888 8.46757252 31.87311755 7.6875 28.3125 C7.47416016 27.30509766 7.26082031 26.29769531 7.04101562 25.25976562 C5.46105782 16.93059222 5.46105782 16.93059222 0.140625 10.7265625 C-2.35307595 9.88016035 -4.62607875 9.58215168 -7.25 9.375 C-8.14203125 9.30023437 -9.0340625 9.22546875 -9.953125 9.1484375 C-10.96632813 9.07496094 -10.96632813 9.07496094 -12 9 C-12.33 7.68 -12.66 6.36 -13 5 C-8.59058242 0.69812919 -6.38589077 -0.91227011 0 0 Z " fill="#090A29" transform="translate(1926,3050)"/>
<path d="M0 0 C4.66730356 0.37896909 7.4148818 1.64037327 11.125 4.4375 C22.06933174 12.60313069 33.74873936 10.10892022 46.859375 9.046875 C48.12920227 8.94538147 49.39902954 8.84388794 50.70733643 8.73931885 C53.36980569 8.52372186 56.03191805 8.30548108 58.69384766 8.08349609 C62.08031867 7.8022006 65.46803087 7.54099426 68.8564415 7.28428268 C72.12942196 7.03185995 75.40048523 6.75652673 78.671875 6.484375 C79.8751947 6.39565125 81.0785144 6.30692749 82.31829834 6.21551514 C88.54869277 5.66939537 93.64675406 4.74973757 99.23469543 1.87469482 C103.84718483 -0.41075817 108.97185076 0.40941677 113.75 1.80078125 C121.29039876 4.63939067 121.29039876 4.63939067 124 8 C123.72963853 10.97397616 123.14553974 11.85446026 121 14 C119.0645752 14.23377991 119.0645752 14.23377991 116.67382812 14.21118164 C115.77950073 14.20780289 114.88517334 14.20442413 113.96374512 14.20094299 C112.99602173 14.18748337 112.02829834 14.17402374 111.03125 14.16015625 C109.54437683 14.1523539 109.54437683 14.1523539 108.02746582 14.14439392 C104.85149701 14.12653542 101.67584638 14.09535689 98.5 14.0625 C95.32418439 14.03491967 92.14841367 14.01020691 88.97253418 13.99131775 C86.9937328 13.97902412 85.01495631 13.96138546 83.03625488 13.93800354 C81.69476379 13.92820717 81.69476379 13.92820717 80.32617188 13.91821289 C79.14275208 13.90583336 79.14275208 13.90583336 77.9354248 13.89320374 C75.91684308 13.87605554 75.91684308 13.87605554 74 15 C74.99 15.66 75.98 16.32 77 17 C76.64424082 22.45497409 75.06075061 26.33288347 72.50390625 31.140625 C71.43861325 33.16606521 70.43086974 35.22225431 69.46484375 37.296875 C57.8104392 62.09348042 35.08079574 83.40976127 9.6875 93.9375 C5.91271969 95.02514857 2.90606561 95.3188625 -1 95 C-2 94 -2 94 -2.25 91.125 C-2 88 -2 88 -0.89453125 86.41796875 C1.75648407 84.43380677 4.35173043 83.9593535 7.5625 83.1875 C27.16997879 77.83268546 43.81124819 61.11960612 54.21191406 44.00585938 C58.69343684 36.14917807 62 29.21710846 62 20 C57.52632942 17.39652554 54.70056453 16.67308836 49.5625 17.1875 C48.35078125 17.30480469 47.1390625 17.42210938 45.890625 17.54296875 C44.60671875 17.69378906 43.3228125 17.84460937 42 18 C41.32001953 18.07943848 40.64003906 18.15887695 39.93945312 18.24072266 C31.85720808 19.08270598 31.85720808 19.08270598 24 21 C18.70768419 21.83954407 14.86901271 21.3363981 10.3125 18.4375 C4.94099378 14.43003652 0.67153368 10.77567253 -0.9375 4.125 C-0.958125 3.09375 -0.97875 2.0625 -1 1 C-0.67 0.67 -0.34 0.34 0 0 Z " fill="#080812" transform="translate(1552,3081)"/>
<path d="M0 0 C4.3823932 1.38391364 7.82397922 3.49346979 11.5625 6.125 C11.5 8.25 11.5 8.25 10.5625 11.125 C9.11328125 12.39746094 9.11328125 12.39746094 7.3125 13.734375 C3.03796427 17.277518 0.99284705 21.30450913 -1.375 26.25 C-2.2334755 27.95555243 -3.09676815 29.65868866 -3.96484375 31.359375 C-4.38362793 32.17986328 -4.80241211 33.00035156 -5.23388672 33.84570312 C-7.89550679 38.88604491 -11.09362001 43.51275174 -14.4375 48.125 C-15.17226562 49.15625 -15.90703125 50.1875 -16.6640625 51.25 C-32.49158557 72.96240937 -55.68156188 91.65582576 -81.4375 100.125 C-84.21835756 100.44685851 -86.62311642 100.27577055 -89.4375 100.125 C-89.92525592 94.75968487 -89.92525592 94.75968487 -87.85546875 92.06640625 C-84.85460478 89.65698881 -82.19302784 88.8781691 -78.5 87.8125 C-49.81187224 78.90253541 -29.22548743 54.52900534 -15.375 28.84375 C-14.72575022 27.60595266 -14.08000177 26.36631342 -13.4375 25.125 C-13.07398437 24.43019531 -12.71046875 23.73539063 -12.3359375 23.01953125 C-11.97757813 22.32214844 -11.61921875 21.62476562 -11.25 20.90625 C-10.92644531 20.27783203 -10.60289062 19.64941406 -10.26953125 19.00195312 C-9.41030199 17.06364486 -8.89086054 15.19259883 -8.4375 13.125 C-23.48927626 14.63617048 -38.46043586 16.26815289 -53.37841797 18.78857422 C-57.79052252 19.50945163 -62.22270082 20.09343015 -66.65234375 20.6953125 C-68.97384904 21.053469 -71.16503026 21.55090238 -73.4375 22.125 C-80.28251653 22.80950165 -84.10329887 21.45832757 -89.4375 17.125 C-92.52383332 14.33758516 -94.31986761 12.14448075 -94.8125 7.875 C-94.4375 5.125 -94.4375 5.125 -93.4375 3.125 C-88.03712153 3.8196139 -84.54073631 6.56838701 -80.15625 9.62890625 C-71.32890854 14.1509556 -57.7966479 10.74629017 -48.375 9.75 C-46.46750977 9.56050781 -46.46750977 9.56050781 -44.52148438 9.3671875 C-37.66223774 8.66331406 -30.88774104 7.7810534 -24.10498047 6.53588867 C-21.26988038 6.0991805 -18.48976257 5.92902232 -15.625 5.8125 C-10.88387675 5.46558854 -8.64920418 4.10291268 -5.04296875 1.15625 C-3.4375 0.125 -3.4375 0.125 0 0 Z " fill="#0A0C31" transform="translate(2184.4375,3075.875)"/>
<path d="M0 0 C7.24180868 -0.51727205 11.95940229 1.0157677 17.79296875 5.32421875 C19 7 19 7 18.99609375 9.21484375 C17.60692803 13.09906006 15.42021126 16.19953738 13.0625 19.5625 C12.1555026 20.87488804 11.2504901 22.1886505 10.34765625 23.50390625 C9.94554932 24.07955322 9.54344238 24.6552002 9.12915039 25.24829102 C7.93184322 27.10573511 6.95399083 29.00822 6 31 C6.98033203 31.88377319 6.98033203 31.88377319 7.98046875 32.78540039 C10.99023247 37.5762078 10.46757096 41.89249046 10.3125 47.43359375 C10.29413086 48.54428726 10.27576172 49.65498077 10.25683594 50.79933167 C10.21267442 53.14548427 10.1582308 55.49146274 10.09423828 57.8371582 C10.00043649 61.42082408 9.94911056 65.00333733 9.90234375 68.58789062 C9.85411556 70.86984705 9.80341629 73.15175287 9.75 75.43359375 C9.73622314 76.50250351 9.72244629 77.57141327 9.70825195 78.67271423 C9.51199368 84.7143494 8.98078959 88.35889693 5 93 C2.50289018 92.65557106 1.17845335 92.15296001 -0.75 90.5 C-2.86984773 86.26030453 -2.56031822 81.46505763 -1.52075195 76.89160156 C-0.83468915 73.08207138 -0.65487722 69.2767419 -0.46484375 65.41796875 C-0.42186661 64.60378983 -0.37888947 63.7896109 -0.33460999 62.95075989 C-0.19880855 60.36317181 -0.06808321 57.77535614 0.0625 55.1875 C0.15396145 53.42771691 0.24575466 51.66795103 0.33789062 49.90820312 C0.56243668 45.60565858 0.78243216 41.30290282 1 37 C0.34 37 -0.32 37 -1 37 C-1.20496094 37.52722656 -1.40992188 38.05445312 -1.62109375 38.59765625 C-3.60329164 42.0510605 -6.25394758 44.63668571 -9.0625 47.4375 C-9.97938599 48.35196899 -9.97938599 48.35196899 -10.91479492 49.28491211 C-15.63088113 53.88020967 -20.58982575 58.05575414 -25.8125 62.0625 C-26.49256104 62.58577881 -27.17262207 63.10905762 -27.87329102 63.64819336 C-40.77370993 73.29818663 -40.77370993 73.29818663 -45.76879883 72.62915039 C-46.50509521 72.42153076 -47.2413916 72.21391113 -48 72 C-48.495 69.525 -48.495 69.525 -49 67 C-45.86321535 64.18771031 -42.6768549 62.30177376 -38.9375 60.4375 C-32.52956512 57.01821217 -27.56000009 52.43001657 -22.42578125 47.390625 C-21.10635304 46.10373063 -19.75743545 44.84725939 -18.40625 43.59375 C-13.44476506 38.88347948 -9.18544032 33.8613838 -5.125 28.375 C-4.6724585 27.7655957 -4.21991699 27.15619141 -3.75366211 26.52832031 C2.50681696 18.04068285 2.50681696 18.04068285 4 8 C2.02 7.01 0.04 6.02 -2 5 C-1.34 3.35 -0.68 1.7 0 0 Z " fill="#0A0A0A" transform="translate(1423,3089)"/>
<path d="M0 0 C7.24180868 -0.51727205 11.95940229 1.0157677 17.79296875 5.32421875 C19 7 19 7 18.99609375 9.21484375 C17.60692803 13.09906006 15.42021126 16.19953738 13.0625 19.5625 C12.1555026 20.87488804 11.2504901 22.1886505 10.34765625 23.50390625 C9.94554932 24.07955322 9.54344238 24.6552002 9.12915039 25.24829102 C7.93184322 27.10573511 6.95399083 29.00822 6 31 C6.98033203 31.88377319 6.98033203 31.88377319 7.98046875 32.78540039 C10.99023247 37.5762078 10.46757096 41.89249046 10.3125 47.43359375 C10.29413086 48.54428726 10.27576172 49.65498077 10.25683594 50.79933167 C10.21267442 53.14548427 10.1582308 55.49146274 10.09423828 57.8371582 C10.00043649 61.42082408 9.94911056 65.00333733 9.90234375 68.58789062 C9.85411556 70.86984705 9.80341629 73.15175287 9.75 75.43359375 C9.73622314 76.50250351 9.72244629 77.57141327 9.70825195 78.67271423 C9.51199368 84.7143494 8.98078959 88.35889693 5 93 C2.50289018 92.65557106 1.17845335 92.15296001 -0.75 90.5 C-3.52907903 84.94184194 -1.95809496 78.53456975 -1.0625 72.625 C0.64229116 60.83655048 0.68124889 48.89097116 1 37 C0.34 37 -0.32 37 -1 37 C-1.20496094 37.52722656 -1.40992188 38.05445312 -1.62109375 38.59765625 C-3.60329164 42.0510605 -6.25394758 44.63668571 -9.0625 47.4375 C-9.97938599 48.35196899 -9.97938599 48.35196899 -10.91479492 49.28491211 C-15.63088113 53.88020967 -20.58982575 58.05575414 -25.8125 62.0625 C-26.49256104 62.58577881 -27.17262207 63.10905762 -27.87329102 63.64819336 C-40.77370993 73.29818663 -40.77370993 73.29818663 -45.76879883 72.62915039 C-46.50509521 72.42153076 -47.2413916 72.21391113 -48 72 C-48.495 69.525 -48.495 69.525 -49 67 C-45.86321535 64.18771031 -42.6768549 62.30177376 -38.9375 60.4375 C-32.52956512 57.01821217 -27.56000009 52.43001657 -22.42578125 47.390625 C-21.10635304 46.10373063 -19.75743545 44.84725939 -18.40625 43.59375 C-13.44476506 38.88347948 -9.18544032 33.8613838 -5.125 28.375 C-4.6724585 27.7655957 -4.21991699 27.15619141 -3.75366211 26.52832031 C2.50681696 18.04068285 2.50681696 18.04068285 4 8 C2.02 7.01 0.04 6.02 -2 5 C-1.34 3.35 -0.68 1.7 0 0 Z " fill="#0B0C1F" transform="translate(1762,3089)"/>
<path d="M0 0 C3.62508284 0.21970199 5.75581689 1.47044915 8.62109375 3.5234375 C13.16060124 6.39761549 16.71925669 6.7027342 22 6.5 C23.27302979 6.47558838 23.27302979 6.47558838 24.57177734 6.45068359 C39.41115244 5.99206564 55.8388709 4.72037637 70 0 C76.87547102 -0.75704645 83.23711162 -0.09950923 89 4 C90.0625 6.75 90.0625 6.75 90 9 C87.62692526 11.21117541 86.32602843 11.96934706 83.05273438 12.27709961 C81.91126953 12.23593018 80.76980469 12.19476074 79.59375 12.15234375 C78.3051709 12.12197021 77.0165918 12.09159668 75.68896484 12.06030273 C74.66425079 12.02922928 74.66425079 12.02922928 73.61883545 11.99752808 C57.35118029 11.53665414 42.04164705 13.18935727 26 16 C11.87650751 18.40524465 11.87650751 18.40524465 6.6171875 15.8359375 C2.90629909 13.16574104 -0.32787591 10.34752264 -2 6 C-1.6 1.6 -1.6 1.6 0 0 Z " fill="#080812" transform="translate(1569,3055)"/>
<path d="M0 0 C4.38431158 1.77742361 8.63149021 3.63149021 12 7 C11.75 9.0625 11.75 9.0625 11 11 C8.37128092 12.31435954 6.35362877 12.16087298 3.41015625 12.2109375 C2.24548828 12.23728271 1.08082031 12.26362793 -0.11914062 12.29077148 C-1.37919922 12.31856689 -2.63925781 12.3463623 -3.9375 12.375 C-14.34591485 12.66752493 -24.64320408 13.288722 -35 14.4375 C-36.13171631 14.5597998 -37.26343262 14.68209961 -38.42944336 14.80810547 C-43.33559363 15.38459406 -47.42962949 16.0821449 -52 18 C-56.45477286 18.8099587 -58.9585919 17.68365947 -62.6875 15.375 C-66.40427867 12.71747191 -68.63384012 10.48881104 -70 6 C-69.6875 3.625 -69.6875 3.625 -69 2 C-67.21972656 1.34960938 -67.21972656 1.34960938 -65 1 C-63.27246094 1.97851562 -63.27246094 1.97851562 -61.484375 3.40625 C-56.24030278 6.90229815 -51.39238484 6.67923959 -45.25 6.5 C-43.61466309 6.47450073 -43.61466309 6.47450073 -41.94628906 6.44848633 C-34.82454778 6.26748664 -27.80054763 5.70417679 -20.75 4.6875 C-19.93563477 4.57019531 -19.12126953 4.45289062 -18.28222656 4.33203125 C-11.51031885 3.20385963 -6.98460839 -0.91601421 0 0 Z " fill="#0B0D32" transform="translate(2172,3051)"/>
<path d="M0 0 C5.62027219 -0.51811884 9.16269964 1.15519145 14 3.6875 C14.68578125 4.02716797 15.3715625 4.36683594 16.078125 4.71679688 C21.68782183 7.58052569 26.44695323 10.67042985 30 16 C29.55555556 21.44444444 29.55555556 21.44444444 27 24 C23.67364843 23.87248986 22.26434738 23.23875036 19.78125 20.99609375 C19.0284375 20.15175781 18.275625 19.30742187 17.5 18.4375 C11.9537997 12.61482748 5.96853035 8.91024117 -1 5 C-0.67 3.35 -0.34 1.7 0 0 Z " fill="#0B0B0B" transform="translate(1307,3050)"/>
<path d="M0 0 C5.57040307 0.545405 10.03879225 2.01937987 15.125 4.3125 C15.81464844 4.60833984 16.50429687 4.90417969 17.21484375 5.20898438 C22.54282244 7.56735353 26.69821608 10.04732412 30 15 C29.43396226 21.56603774 29.43396226 21.56603774 28 23 C25.875 23.5 25.875 23.5 23 23 C21.60546875 21.75390625 21.60546875 21.75390625 20.0625 20.0625 C15.75037857 15.37831499 10.57587625 12.33806588 5.20703125 9.015625 C2.69589948 7.43737409 0.33062446 5.82748717 -2 4 C-1.34 2.68 -0.68 1.36 0 0 Z " fill="#090909" transform="translate(1321,3038)"/>
<path d="M0 0 C10.17810285 1.34369491 20.07954534 5.81888798 27.48046875 12.97265625 C29 15 29 15 29.6875 18.875 C29 22 29 22 27 24 C24.25 24.0625 24.25 24.0625 21 23 C19.43668185 21.42335811 18.13125846 19.72282334 16.765625 17.97265625 C13.43437361 14.25079353 9.15628155 11.71705137 5 9 C3.79139976 8.18789707 2.58301329 7.37547577 1.375 6.5625 C0.59125 6.046875 -0.1925 5.53125 -1 5 C-0.67 3.35 -0.34 1.7 0 0 Z " fill="#080916" transform="translate(1657,3041)"/>
<path d="M0 0 C5.10418093 0.46684582 9.36902688 2.20436338 14 4.25 C14.68578125 4.53746094 15.3715625 4.82492188 16.078125 5.12109375 C21.04637553 7.29233301 26.47499648 9.94999295 29 15 C29.23076923 20.53846154 29.23076923 20.53846154 28 23 C25.5 23.5 25.5 23.5 22 23 C19.97402903 21.23588922 18.23849266 19.2832517 16.421875 17.3046875 C11.89875829 13.00043127 6.36759821 10.12803945 1 7 C0.01 6.34 -0.98 5.68 -2 5 C-1.125 1.125 -1.125 1.125 0 0 Z " fill="#080917" transform="translate(1671,3029)"/>
</svg>
