<svg xmlns="http://www.w3.org/2000/svg" version="1.1" viewBox="671 1492 2104 479">
<path d="M0 0 C0.33 51.15 0.66 102.3 1 155 C3.64 149.72 6.28 144.44 9 139 C22.55922901 118.20918219 38.95378734 103.54260159 63.58203125 97.8515625 C70.2270296 96.6085174 76.88474882 96.65873528 83.625 96.6875 C84.28852478 96.68899048 84.95204956 96.69048096 85.63568115 96.6920166 C95.78582021 96.73303221 105.20506067 97.27721903 115 100 C116.01964844 100.26683594 117.03929687 100.53367187 118.08984375 100.80859375 C136.99997342 106.39963078 154.31249965 118.35051455 164.125 135.66015625 C171.16009283 148.69279801 175.10738864 162.36732242 175.13803101 177.27735901 C175.14085229 177.97583307 175.14367357 178.67430713 175.14658034 179.39394706 C175.15486197 181.71650032 175.15625904 184.0390055 175.15771484 186.36157227 C175.16238795 188.0344506 175.16753233 189.70732768 175.17311096 191.38020325 C175.18436069 194.97543276 175.19281002 198.57065414 175.19923019 202.16589546 C175.20995264 207.86216907 175.23020997 213.55838417 175.25234985 219.25462341 C175.31412762 235.45040189 175.36821125 251.64617674 175.40136719 267.84204102 C175.41977071 276.79267932 175.44877833 285.74321924 175.4893719 294.69378513 C175.5103463 299.4225607 175.52588551 304.1512128 175.52817917 308.88003731 C175.53034245 313.33463598 175.54638112 317.78897767 175.57256889 322.24349785 C175.57969988 323.86790419 175.58189342 325.49234188 175.57846642 327.11676025 C175.54926649 343.60523239 177.29317398 360.33507057 189 373 C190.64418383 374.03655068 192.30330285 375.05184571 194 376 C194 376.99 194 377.98 194 379 C164.3 379 134.6 379 104 379 C103.97812622 368.85636719 103.97812622 368.85636719 103.95581055 358.5078125 C103.90695436 336.81978269 103.84351814 315.13181551 103.77101372 293.44385219 C103.75974684 290.06966484 103.74860818 286.69547709 103.73754883 283.32128906 C103.7342433 282.31376611 103.7342433 282.31376611 103.730871 281.28588915 C103.69559049 270.43941224 103.67067433 259.59293538 103.64965298 248.74642253 C103.62781696 237.59985929 103.59447433 226.45336557 103.55129844 215.30686378 C103.52743397 209.05321673 103.50866083 202.79965097 103.50238609 196.54595947 C103.49630455 190.64936102 103.47619442 184.75297039 103.44572449 178.85644913 C103.43699326 176.70235771 103.43321138 174.54823908 103.43499184 172.39413071 C103.57480237 143.97307072 103.57480237 143.97307072 90.7890625 119.46484375 C83.50473463 113.5006015 75.93507958 111.65800262 66.74609375 112.1875 C58.12781611 113.09568293 51.41731184 115.58070343 44 120 C43.34515625 120.36867188 42.6903125 120.73734375 42.015625 121.1171875 C21.84079403 133.79586568 12.02464353 164.19963364 6.64501953 186.109375 C2.91813788 202.81122162 0.84731835 219.78552289 0.85473633 236.89038086 C0.85137772 238.02363297 0.8480191 239.15688507 0.84455872 240.32447815 C0.83512785 244.03794476 0.83310979 247.75136594 0.83203125 251.46484375 C0.82881396 254.06596393 0.82544954 256.66708393 0.82194519 259.26820374 C0.81557571 264.70736992 0.81406018 270.14652395 0.81469727 275.58569336 C0.81529801 281.8437863 0.80473754 288.10179304 0.7889536 294.35986418 C0.77422866 300.41735746 0.77071114 306.47480979 0.77130699 312.53232002 C0.77013204 315.09299637 0.76573766 317.65367345 0.75797462 320.2143383 C0.7481104 323.80303878 0.75107781 327.39152014 0.75708008 330.98022461 C0.75146057 332.02318695 0.74584106 333.06614929 0.74005127 334.14071655 C0.77956616 343.49986457 1.38771277 353.05580547 5.875 361.4375 C6.61363281 362.85869141 6.61363281 362.85869141 7.3671875 364.30859375 C9.91735778 368.5121041 12.3244086 372.01459677 16.75 374.3125 C17.8225 374.869375 18.895 375.42625 20 376 C20 376.99 20 377.98 20 379 C-16.3 379 -52.6 379 -90 379 C-90 378.01 -90 377.02 -90 376 C-88.2421875 374.74609375 -88.2421875 374.74609375 -85.875 373.4375 C-77.46052258 368.07922428 -74.12296021 359.42537469 -72 350 C-71.38644197 345.32517072 -71.04556866 340.63783277 -70.6875 335.9375 C-66.30134165 285.51299301 -42.3802006 235.87114688 -18 192 C-20.40427676 193.91249288 -22.79801319 195.82860608 -25.140625 197.81640625 C-31.44918563 203.03849255 -37.29242109 206.48592224 -45.6875 205.9375 C-53.10693663 204.71380819 -57.75283006 199.87144173 -62 194 C-69.16871294 182.60729796 -70.14221452 169.34708931 -70.17358398 156.2565918 C-70.180271 155.0914505 -70.18695801 153.9263092 -70.19384766 152.7258606 C-70.20786368 150.20286273 -70.2197686 147.67985243 -70.22979546 145.15683556 C-70.24626061 141.15870141 -70.26929423 137.16063638 -70.29469299 133.16255188 C-70.36563712 121.79730095 -70.42558441 110.4320068 -70.47680664 99.06665039 C-70.50521024 92.7807741 -70.5406419 86.49497515 -70.58346039 80.20918018 C-70.60572211 76.8901286 -70.6231329 73.57116178 -70.63390923 70.2520504 C-70.64611905 66.54512097 -70.6702927 62.83844103 -70.69702148 59.1315918 C-70.69761063 58.04710251 -70.69819977 56.96261322 -70.69880676 55.84526062 C-70.77006828 44.44626392 -70.77006828 44.44626392 -74.875 34.0625 C-79.53925111 30.98409427 -84.56464537 30.06626574 -90 29 C-90.33 27.68 -90.66 26.36 -91 25 C-72.34502107 19.4505351 -53.59574023 14.27896763 -34.81524658 9.17523193 C-31.76123717 8.34456189 -28.70793726 7.51130002 -25.65463352 6.6780405 C-22.70481487 5.87326695 -19.75464972 5.06977018 -16.80436516 4.26670647 C-15.40118465 3.88465926 -13.9980937 3.50228293 -12.59509468 3.11956978 C-10.6608267 2.59220435 -8.72605662 2.06668153 -6.79125977 1.54125977 C-5.69338638 1.24260513 -4.595513 0.9439505 -3.46437073 0.63624573 C-1 0 -1 0 0 0 Z " fill="#000000" transform="translate(1518,1492)"/>
<path d="M0 0 C0.09371367 20.97618518 0.1641111 41.95233551 0.20724869 62.92868805 C0.22781645 72.66981533 0.25582554 82.41081203 0.30175781 92.15185547 C0.34180367 100.64864207 0.36747479 109.14533403 0.37635398 117.64221239 C0.38153887 122.13538877 0.39360251 126.62829457 0.42292023 131.12138367 C0.4503709 135.36330231 0.45838615 139.60484277 0.45243073 143.84684181 C0.45351787 145.39142231 0.46129338 146.93601743 0.4768219 148.48052025 C0.62535056 164.03611276 -1.83650702 179.5283518 -11.3125 192.375 C-15.64849173 196.61015471 -20.1306686 199.13722721 -26.25 199.625 C-34.26178005 199.26335715 -42.17180373 194.23261417 -48 189 C-48 188.34 -48 187.68 -48 187 C-48.66 187 -49.32 187 -50 187 C-50 186.34 -50 185.68 -50 185 C-50.66 185 -51.32 185 -52 185 C-51.69932617 185.55123535 -51.39865234 186.1024707 -51.08886719 186.67041016 C-50.66250977 187.45206543 -50.23615234 188.2337207 -49.796875 189.0390625 C-49.31718262 189.91828369 -48.83749023 190.79750488 -48.34326172 191.70336914 C-47.26603697 193.67872136 -46.18955948 195.65448124 -45.11376953 197.63061523 C-42.38703643 202.63700473 -39.65114322 207.63756914 -36.8828125 212.62109375 C-16.84023709 248.78902339 -1.7595458 285.95701988 0.65820312 327.61328125 C1.60930668 343.84202123 2.95248808 359.86589825 15.75 371.5 C17.90697395 373.00516811 17.90697395 373.00516811 20 374 C20 374.99 20 375.98 20 377 C12.68939031 377.24262198 5.82201932 376.56902878 -1.375 375.3125 C-2.41720703 375.13315918 -3.45941406 374.95381836 -4.53320312 374.76904297 C-25.93162326 370.96929307 -45.406158 365.39936196 -64 354 C-65.66626971 352.9993387 -67.33278773 351.9990901 -69 351 C-69.76441406 351.556875 -70.52882813 352.11375 -71.31640625 352.6875 C-92.48763526 367.76977145 -115.12226267 377.6759486 -141.5625 377.375 C-142.86952881 377.36484863 -144.17655762 377.35469727 -145.52319336 377.34423828 C-175.47396776 376.86985067 -206.74483361 369.89459322 -230 350 C-230.95390625 349.195625 -231.9078125 348.39125 -232.890625 347.5625 C-261.64208722 322.42460953 -271.80350997 284.8898741 -274.48413086 248.09912109 C-277.06238359 208.11608531 -271.30158783 164.00048259 -244.34765625 132.53076172 C-229.07050785 115.1779138 -210.45210031 103.7729326 -188 98 C-186.75476562 97.67902344 -185.50953125 97.35804687 -184.2265625 97.02734375 C-158.87790705 91.26847316 -133.37122757 93.79947431 -111 107 C-107.17357884 109.48880499 -103.56128115 112.14737176 -100 115 C-99.36964844 115.47824219 -98.73929688 115.95648437 -98.08984375 116.44921875 C-88.24944896 124.27222053 -80.43084549 135.73951611 -74.39355469 146.66748047 C-73.94486023 147.47861298 -73.49616577 148.28974548 -73.03387451 149.12545776 C-72.69269592 149.7440567 -72.35151733 150.36265564 -72 151 C-71.95326451 136.09223287 -71.91800356 121.18447142 -71.89637566 106.27664661 C-71.88606621 99.35457217 -71.87201223 92.43254326 -71.84912109 85.51049805 C-71.82704623 78.83209798 -71.81543556 72.15375504 -71.81024551 65.475317 C-71.80654617 62.92559756 -71.79932244 60.37588074 -71.78853989 57.82618141 C-71.77405178 54.25881955 -71.77202096 50.69165406 -71.77294922 47.12426758 C-71.76216339 45.53822975 -71.76216339 45.53822975 -71.75115967 43.92015076 C-71.75528366 42.4583992 -71.75528366 42.4583992 -71.75949097 40.96711731 C-71.75764738 40.12367673 -71.75580379 39.28023615 -71.75390434 38.41123676 C-72.04121019 35.59622397 -72.72193945 33.52300377 -74 31 C-77.41211416 28.72525723 -79.6568529 28.43370356 -83.6875 27.875 C-84.86699219 27.70742187 -86.04648438 27.53984375 -87.26171875 27.3671875 C-88.16535156 27.24601562 -89.06898438 27.12484375 -90 27 C-90 25.68 -90 24.36 -90 23 C-78.70957423 19.99681906 -67.4181006 16.99761424 -56.12526226 14.00351715 C-50.88189338 12.61319579 -45.63889892 11.22149415 -40.39672852 9.82666016 C-35.34016247 8.48126561 -30.28265467 7.13946802 -25.22446632 5.80018616 C-23.29237518 5.28793515 -21.36063017 4.77437685 -19.42923546 4.25950623 C-16.72935601 3.54000943 -14.02829649 2.82512078 -11.3269043 2.11132812 C-10.52417587 1.89626114 -9.72144745 1.68119415 -8.89439392 1.45960999 C-5.84856402 0.65890148 -3.16393758 0 0 0 Z M-177 116 C-177.60457031 116.47953125 -178.20914062 116.9590625 -178.83203125 117.453125 C-197.79810896 134.40700034 -202.20751862 166.17377231 -204 190 C-204.35511174 197.37090827 -204.33963465 204.74734695 -204.3125 212.125 C-204.31100952 213.12935089 -204.30951904 214.13370178 -204.3079834 215.16848755 C-204.26166151 232.61161621 -203.39859996 249.70806539 -201 267 C-200.85546387 268.05106934 -200.71092773 269.10213867 -200.56201172 270.18505859 C-196.88961087 295.81052677 -190.04889902 320.68072638 -175 342 C-174.45859375 342.78761719 -173.9171875 343.57523438 -173.359375 344.38671875 C-172.68648437 345.18529297 -172.68648437 345.18529297 -172 346 C-171.34 346 -170.68 346 -170 346 C-169.773125 346.5878125 -169.54625 347.175625 -169.3125 347.78125 C-164.90800893 355.22693728 -153.15709244 359.25167983 -145.1394043 361.52832031 C-130.09161708 364.84594269 -113.9119688 361.62478268 -100.625 354.25 C-86.15792414 344.75141484 -75.05753769 330.68418133 -71.41114426 313.55419922 C-70.68349128 309.0337161 -70.70528153 304.53638518 -70.70947266 299.96679688 C-70.70275543 298.90038971 -70.69603821 297.83398254 -70.68911743 296.73526001 C-70.67021092 293.22970846 -70.66621633 289.72434929 -70.6640625 286.21875 C-70.65762741 283.76127039 -70.65089853 281.30379152 -70.64389038 278.84631348 C-70.63193442 273.69863105 -70.62820762 268.55101563 -70.62939453 263.40332031 C-70.62959714 256.84832839 -70.60234693 250.29377282 -70.56785011 243.73888397 C-70.54546591 238.66152017 -70.54156058 233.58425926 -70.54261398 228.5068512 C-70.54027334 226.09264123 -70.53153784 223.67842774 -70.51594925 221.26426697 C-70.30540632 185.27726477 -82.49415123 152.22073337 -107.625 125.9375 C-119.57534962 114.63311522 -133.92413128 107.07841526 -150.5625 106.625 C-160.86195836 106.92032497 -168.94232238 109.5538579 -177 116 Z M-53 183 C-52 185 -52 185 -52 185 Z " fill="#000000" transform="translate(1367,1494)"/>
<path d="M0 0 C0.89841614 0.00054382 1.79683228 0.00108765 2.72247314 0.00164795 C28.9344281 0.07440235 53.48109667 4.3633349 77 16.375 C78.41152344 17.06529297 78.41152344 17.06529297 79.8515625 17.76953125 C87.01160101 21.43022699 93.00089341 26.04246081 99 31.375 C99.73347656 32.0246875 100.46695313 32.674375 101.22265625 33.34375 C112.97040726 44.3898049 118.97702838 58.90587367 120.1875 74.84375 C120.5952026 91.35570521 117.34229999 107.53837651 113 123.375 C112.73477539 124.34759766 112.46955078 125.32019531 112.19628906 126.32226562 C104.5785993 153.71072247 93.13074495 179.72410591 81 205.375 C80.14042905 207.20433502 79.28105114 209.03376076 78.421875 210.86328125 C75.34392033 217.39938711 72.25554978 223.924942 69 230.375 C69.67804687 229.77171875 70.35609375 229.1684375 71.0546875 228.546875 C80.6548062 220.30300575 87.8959914 216.56469711 100.7265625 216.99609375 C107.9077747 217.82733192 112.12139008 220.93403381 116.7734375 226.30078125 C119.86506214 231.52897451 120.30014191 237.38645555 120.8125 243.3125 C122.00696536 254.75189984 124.2682546 268.14612999 133 276.375 C134.64418383 277.41155068 136.30330285 278.42684571 138 279.375 C138 280.365 138 281.355 138 282.375 C126.03093506 288.35953247 101.1878764 280.65016447 88.9375 276.6875 C75.7590361 272.18708586 63.90579602 266.06266801 53 257.375 C50.14844969 258.68451023 48.51302928 259.81962544 46.125 262 C24.20370975 281.00154124 -7.23550086 283.99357928 -35 282.375 C-62.3046201 280.10693134 -89.71451019 270.74270305 -108 249.375 C-117.06518735 237.07485668 -123.10834459 222.74294323 -124 207.375 C-124.06445312 206.31023437 -124.12890625 205.24546875 -124.1953125 204.1484375 C-124.94469773 180.41790512 -115.18814108 161.08652372 -99.6328125 143.734375 C-88.60419838 132.2356888 -75.7670443 123.60528521 -62.08105469 115.60351562 C-60.27929988 114.53987999 -58.50057561 113.43741244 -56.7265625 112.328125 C-42.21112577 103.47992428 -25.95411801 97.45288035 -10.1484375 91.2890625 C22.70967406 79.64358244 22.70967406 79.64358244 45.00390625 54.55859375 C47.33660859 47.10309411 47.05406845 38.7838355 44.15234375 31.49609375 C39.12047495 22.23404372 31.09444806 16.86901653 21.1315918 13.79931641 C4.35736388 9.27883545 -13.26661539 11.17683917 -29 18.375 C-49.16798558 30.12003959 -58.65930396 50.65651121 -64.625 72.3125 C-68.48140171 86.98944993 -70.1720334 102.24319655 -71 117.375 C-71.99 117.705 -72.98 118.035 -74 118.375 C-77.26137997 106.66004676 -79.98083613 94.86088505 -82.58203125 82.984375 C-83.00462677 81.06242404 -83.42729141 79.14048829 -83.85002136 77.21856689 C-84.72729221 73.2255168 -85.60168205 69.23184805 -86.47436523 65.23779297 C-87.59424842 60.11491214 -88.7246473 54.99441128 -89.85750294 49.87438583 C-90.73012043 45.92256121 -91.59565152 41.96920963 -92.4591732 38.01538849 C-92.87326718 36.12493879 -93.289952 34.23505468 -93.70926857 32.34575653 C-94.29126001 29.72002578 -94.86330795 27.09231961 -95.43286133 24.46386719 C-95.60783646 23.68470444 -95.78281158 22.90554169 -95.96308899 22.10276794 C-97.11415311 16.71745934 -97.11415311 16.71745934 -96 13.375 C-62.286328 6.44228825 -62.286328 6.44228825 -47.3125 4.0625 C-46.39154541 3.91586914 -45.47059082 3.76923828 -44.52172852 3.61816406 C-41.68399191 3.18123665 -38.84308962 2.7755775 -36 2.375 C-34.82614746 2.19839844 -33.65229492 2.02179688 -32.44287109 1.83984375 C-21.613665 0.32128724 -10.92733424 -0.02500187 0 0 Z M42.84936523 80.26977539 C35.36522085 85.50126642 27.57302236 89.80002309 19.4375 93.9375 C4.93295784 101.34770943 -7.93043853 109.39355117 -20 120.375 C-21.43859375 121.67050781 -21.43859375 121.67050781 -22.90625 122.9921875 C-38.47152619 137.72673265 -46.75453741 155.30371302 -50 176.375 C-50.13148438 177.18710938 -50.26296875 177.99921875 -50.3984375 178.8359375 C-53.7599872 204.72895548 -49.94958665 231.02975225 -34.75 252.5625 C-25.96094822 261.55130295 -15.76541875 266.69371629 -3.125 266.875 C13.20245409 266.66120415 26.92210625 259.31541087 38.390625 248.1171875 C45.19090203 240.97078859 48.25695286 233.73081677 48.24050903 223.7247467 C48.24325836 222.42775848 48.24600769 221.13077026 48.24884033 219.79447937 C48.24176384 218.37478543 48.23449425 216.95509245 48.22705078 215.53540039 C48.22648609 214.02699796 48.22680436 212.51859498 48.22793579 211.01019287 C48.22850805 206.93011043 48.21677432 202.85014632 48.20278788 198.7700913 C48.19025935 194.50065926 48.18910835 190.23122432 48.18673706 185.96177673 C48.18052852 177.88360164 48.16412619 169.80548088 48.14403808 161.72732967 C48.12165958 152.52783369 48.11068074 143.32833507 48.10064721 134.12881863 C48.0797594 115.21084832 48.04459562 96.29292853 48 77.375 C45.97041398 77.375 44.45333675 79.13838356 42.84936523 80.26977539 Z " fill="#000000" transform="translate(2637,1588.625)"/>
<path d="M0 0 C1.31218506 0.00181274 1.31218506 0.00181274 2.65087891 0.00366211 C39.18057425 0.14004141 74.75147497 8.55394429 102.2109375 33.96484375 C114.40174233 46.45940617 120.48058913 61.82305634 120.6953125 79.19140625 C119.96736776 131.83250082 93.06141563 183.51055696 69.5625 229.375 C70.28566406 228.77945312 71.00882813 228.18390625 71.75390625 227.5703125 C74.2698139 225.60377551 76.76926036 223.89793451 79.5 222.25 C80.31339844 221.75242187 81.12679687 221.25484375 81.96484375 220.7421875 C89.6661831 216.688851 98.62600079 215.75007953 107.07421875 218.0625 C112.98418974 220.76420102 116.88715625 225.12832643 119.25 231.1875 C120.5800766 235.55985125 120.99218299 239.97142966 121.4375 244.5 C122.66443047 256.49033667 125.41790101 268.80321705 134.5625 277.375 C136.67277801 278.59564959 136.67277801 278.59564959 138.5625 279.375 C138.5625 280.365 138.5625 281.355 138.5625 282.375 C126.59343506 288.35953247 101.7503764 280.65016447 89.5 276.6875 C76.3215361 272.18708586 64.46829602 266.06266801 53.5625 257.375 C50.71094969 258.68451023 49.07552928 259.81962544 46.6875 262 C24.76620975 281.00154124 -6.67300086 283.99357928 -34.4375 282.375 C-62.45320602 280.04786472 -89.73624146 270.24491032 -108.4375 248.375 C-120.89789518 231.58625702 -125.89642282 210.0108147 -123.16503906 189.31005859 C-118.66818998 162.99775894 -100.5683724 142.19443179 -79.57470703 126.87402344 C-67.20914894 118.20089953 -54.1286929 110.72477434 -40.4375 104.375 C-39.35976318 103.86622314 -39.35976318 103.86622314 -38.26025391 103.34716797 C-27.73323173 98.39021426 -17.04096299 94.00366975 -6.1875 89.8125 C4.04580031 85.84974197 13.97005297 81.71430008 23.5625 76.375 C24.59246094 75.80394531 25.62242187 75.23289062 26.68359375 74.64453125 C35.07608875 69.6682486 42.29910491 63.1501644 45.94140625 53.890625 C47.91701593 45.88878452 47.5405111 36.69723738 43.5625 29.375 C37.37641522 20.08812084 28.33231047 15.28730887 17.64208984 12.77905273 C0.21998467 9.39403465 -18.97682527 11.70501855 -33.875 21.75 C-55.34109038 38.06001965 -64.02784518 64.25705572 -67.86474609 90.04760742 C-69.10165645 99.12533798 -69.98459978 108.22329207 -70.4375 117.375 C-71.7575 117.375 -73.0775 117.375 -74.4375 117.375 C-77.33247431 104.26007432 -80.21899529 91.14331991 -83.09464359 78.02414227 C-84.43009143 71.93288999 -85.76847769 65.84231412 -87.11352539 59.75317383 C-88.41069275 53.88028337 -89.70021161 48.00576192 -90.98437309 42.13001442 C-91.47643633 39.88505669 -91.97128457 37.64070757 -92.46891975 35.39697838 C-93.16375748 32.26188939 -93.84879243 29.12481114 -94.53149414 25.98706055 C-94.74080566 25.05342178 -94.95011719 24.11978302 -95.16577148 23.15785217 C-95.34950821 22.30389862 -95.53324493 21.44994507 -95.72254944 20.57011414 C-95.96728548 19.45704911 -95.96728548 19.45704911 -96.21696568 18.32149792 C-96.4375 16.375 -96.4375 16.375 -95.4375 13.375 C-61.723828 6.44228825 -61.723828 6.44228825 -46.75 4.0625 C-45.82904541 3.91586914 -44.90809082 3.76923828 -43.95922852 3.61816406 C-41.1214845 3.18123551 -38.28063797 2.77529326 -35.4375 2.375 C-34.25712158 2.19839844 -33.07674316 2.02179688 -31.8605957 1.83984375 C-21.22250218 0.35394679 -10.73452661 -0.02759256 0 0 Z M43.41235352 80.26953125 C35.96631483 85.47399487 28.21810224 89.75739283 20.125 93.875 C4.30128454 101.98091995 -9.09741309 110.06004211 -21.73144531 122.67407227 C-22.89073834 123.82988144 -24.0625255 124.97326522 -25.24511719 126.10522461 C-29.23120198 129.9603442 -32.53289533 133.92069973 -35.5625 138.5625 C-35.99062988 139.21686035 -36.41875977 139.8712207 -36.85986328 140.54541016 C-50.98000649 162.65422761 -53.5523252 192.54761161 -49.19140625 218.01171875 C-45.34925791 235.15207998 -39.30794933 250.77761218 -24.12109375 260.796875 C-13.64550035 266.95719485 -2.69872462 268.00345845 9.08984375 265.6796875 C23.79857573 261.51716882 37.59357349 253.07275609 45.25 239.5 C48.039319 233.98718665 48.68783005 229.14969151 48.68275452 223.0032196 C48.68412918 221.71739487 48.68550385 220.43157013 48.68692017 219.10678101 C48.68338147 217.68926978 48.67974667 216.2717588 48.67602539 214.85424805 C48.6757432 213.35599265 48.67590187 211.85773712 48.6764679 210.35948181 C48.67675464 206.29791182 48.67087772 202.23637139 48.66389394 198.17480826 C48.65764 193.92804855 48.65705498 189.68128815 48.65586853 185.43452454 C48.65276124 177.39525994 48.64455595 169.35600895 48.63451904 161.31675035 C48.62333923 152.16324331 48.61784274 143.00973563 48.61282361 133.85622346 C48.60237285 115.02914126 48.58478504 96.20207173 48.5625 77.375 C46.5329802 77.375 45.01620058 79.13812974 43.41235352 80.26953125 Z " fill="#000000" transform="translate(2120.4375,1588.625)"/>
<path d="M0 0 C43.89 0 87.78 0 133 0 C133 0.99 133 1.98 133 3 C132.48050781 3.24234375 131.96101563 3.4846875 131.42578125 3.734375 C122.01857238 8.25539959 116.77128902 13.76682866 112.98828125 23.640625 C106.95966236 43.75562656 111.61114881 62.74282442 118 82 C118.36786621 83.11358887 118.73573242 84.22717773 119.11474609 85.37451172 C120.92024462 90.82745258 122.73521572 96.27713874 124.56225586 101.72290039 C129.68905642 117.00926647 134.72321489 132.32578329 139.74748611 147.64607239 C140.43655869 149.74712985 141.12583713 151.84811969 141.81515503 153.94909668 C146.27332603 167.53845524 150.72530282 181.12974999 155.13671875 194.734375 C155.44256393 195.67738464 155.74840912 196.62039429 156.06352234 197.59197998 C157.4393433 201.83601148 158.81258617 206.08085067 160.18139648 210.32714844 C160.6547696 211.79102066 161.12815726 213.25488817 161.6015625 214.71875 C161.99682129 215.94529297 162.39208008 217.17183594 162.79931641 218.43554688 C163.69127589 221.08349492 164.63788237 223.6664891 165.64990234 226.26757812 C167 230 167 230 167 233 C167.66 233 168.32 233 169 233 C169.25645798 232.1048745 169.25645798 232.1048745 169.51809692 231.19166565 C171.39921131 224.75964537 173.57960194 218.48891103 175.9296875 212.21484375 C176.3119902 211.18612152 176.69429291 210.15739929 177.08818054 209.09750366 C177.91469574 206.87444281 178.74261727 204.65190442 179.57180786 202.42984009 C181.59683122 197.00311133 183.61352879 191.57329097 185.63108253 186.14378166 C186.33707868 184.2442319 187.04347024 182.34482955 187.74992371 180.44544983 C192.28039706 168.26178139 196.77033556 156.06328313 201.25662231 143.86328125 C213.39174293 110.86696068 225.64082122 77.91306287 238 45 C237.67 44.67 237.34 44.34 237 44 C236.01 44.639375 235.02 45.27875 234 45.9375 C230.05997066 48.16171011 226.54348539 49.2073416 222 49 C208.53415643 45.15261612 200.63650155 31.48284733 193.8125 20.1875 C188.7721035 11.87631366 185.02320406 6.88931209 176 3 C176 2.01 176 1.02 176 0 C211.64 0 247.28 0 284 0 C284 0.99 284 1.98 284 3 C283.29875 3.3403125 282.5975 3.680625 281.875 4.03125 C266.30522546 11.98537395 259.38475152 24.54845776 253.16015625 40.3671875 C252.81324234 41.24230988 252.46632843 42.11743225 252.10890198 43.01907349 C249.04541605 50.79271565 246.14285657 58.62014719 243.30395508 66.4781189 C241.70973947 70.88820935 240.10249713 75.29355616 238.49609375 79.69921875 C237.96923477 81.14476891 237.96923477 81.14476891 237.43173218 82.61952209 C232.91274405 95.00252229 228.32135403 107.35876777 223.73220062 119.71588898 C222.99692201 121.69578816 222.26177859 123.67573749 221.52667236 125.65570068 C219.27632643 131.71673415 217.02552009 137.77759643 214.77420044 143.83826828 C210.33879642 155.77869717 205.90785396 167.72078019 201.47777367 179.66318512 C200.03797532 183.54451443 198.59796242 187.42576405 197.15776634 191.3069458 C191.81630524 205.70187634 186.48146038 220.09921824 181.15715027 234.50050354 C177.8392716 243.47354276 174.51293811 252.44342129 171.18196106 261.41160583 C169.25085861 266.61427661 167.33087432 271.82066847 165.42982483 277.03439331 C154.17613398 307.87289232 139.79680635 334.97291315 113 355 C112.21496094 355.58910156 111.42992187 356.17820312 110.62109375 356.78515625 C108.12154699 358.59290094 105.57735252 360.30505063 103 362 C101.98292969 362.68707031 100.96585938 363.37414063 99.91796875 364.08203125 C87.37159502 372.25226742 71.89225737 379.88525288 57 382 C54.34688263 376.57502595 51.69599464 371.14897034 49.04711914 365.72192383 C48.14668181 363.87787861 47.24564812 362.03412447 46.34399414 360.19067383 C45.04414491 357.53283744 43.74648136 354.87394341 42.44921875 352.21484375 C42.0491008 351.39789536 41.64898285 350.58094696 41.23674011 349.73924255 C35 336.93855631 35 336.93855631 35 333 C48.44841411 333.91077156 48.44841411 333.91077156 53.625 334.5625 C72.40601007 336.43752719 92.43059272 335.34634215 110 328 C111.69189453 327.29423828 111.69189453 327.29423828 113.41796875 326.57421875 C126.44249851 320.62298869 139.31259851 310.27337687 145 296.75 C145.96138891 293.14479157 146.36960667 291.42401668 145 288 C143.07975116 285.11962674 140.63183838 284.33521371 137.3671875 283.43920898 C132.00407184 282.4441342 126.50173706 282.51190791 121.0625 282.375 C119.80630859 282.33632812 118.55011719 282.29765625 117.25585938 282.2578125 C114.17071574 282.16396783 111.08557135 282.07827684 108 282 C106.26023403 276.8066747 104.52302952 271.61249982 102.78759766 266.41772461 C102.20486509 264.67435962 101.62158703 262.93117681 101.03759766 261.18823242 C97.65923123 251.10377885 94.32083359 241.00698555 91.03857422 230.89086914 C90.63860544 229.65819368 90.63860544 229.65819368 90.23055649 228.40061569 C89.9562392 227.55514805 89.68192192 226.7096804 89.39929199 225.83859253 C80.60673145 198.74063347 71.61043285 171.71204709 62.58636475 144.69042969 C60.56428568 138.6344827 58.54392398 132.57796285 56.5234375 126.52148438 C53.79363473 118.33917624 51.06313345 110.15710198 48.33163452 101.97535992 C45.32194132 92.9601792 42.31420838 83.94435645 39.3125 74.92651367 C39.03185007 74.08358796 38.75120014 73.24066225 38.46204567 72.37219334 C37.19406161 68.56378815 35.92663136 64.7552011 34.66049194 60.94618225 C25.05980286 27.52959627 25.05980286 27.52959627 1.72265625 3.8125 C1.15417969 3.544375 0.58570313 3.27625 0 3 C0 2.01 0 1.02 0 0 Z " fill="#000000" transform="translate(1719,1589)"/>
<path d="M0 0 C43.56 0 87.12 0 132 0 C132 0.99 132 1.98 132 3 C130.56429734 3.81567174 129.12636566 4.62742093 127.6875 5.4375 C126.48673828 6.11619141 126.48673828 6.11619141 125.26171875 6.80859375 C123 8 123 8 120 9 C118.92214303 10.76770385 118.92214303 10.76770385 118 13 C117.525625 13.87914062 117.05125 14.75828125 116.5625 15.6640625 C111.54796661 25.16660328 109.86637516 32.99890983 109.6875 43.625 C109.66067139 44.65294678 109.66067139 44.65294678 109.63330078 45.70166016 C109.65329276 58.27661171 113.19941168 70.62633811 117.1875 82.4375 C117.61862076 83.73965087 118.04866906 85.04215719 118.4777832 86.3449707 C119.43921484 89.26072481 120.40587897 92.17468397 121.375 95.08789062 C123.17185493 100.50330435 124.93005477 105.93106823 126.6875 111.359375 C133.82204542 133.37377353 141.09922137 155.33241062 148.60473633 177.22314453 C152.75119521 189.31779418 156.84076167 201.42994413 160.875 213.5625 C161.13261108 214.33719635 161.39022217 215.1118927 161.65563965 215.9100647 C163.10579944 220.27270117 164.55324386 224.63623353 166 229 C166.33 229.99 166.66 230.98 167 232 C170.5455446 223.67042081 173.82792884 215.27135004 176.95703125 206.77734375 C177.42150534 205.52210914 177.88620773 204.26695898 178.35112 203.0118866 C179.33279948 200.36042521 180.313011 197.70842807 181.29199219 195.05596924 C182.83405619 190.87800861 184.37960929 186.70134416 185.92578125 182.52490234 C187.74263047 177.61681294 189.55888611 172.70850507 191.37416649 167.79983521 C195.40386224 156.90366603 199.44756592 146.01273299 203.5 135.125 C203.81687775 134.27343323 204.13375549 133.42186646 204.4602356 132.54449463 C211.01433011 114.93399507 217.61176237 97.33979673 224.21728516 79.74853516 C226.85837241 72.71451373 229.49591681 65.67916371 232.13366699 58.64389038 C233.38975691 55.29379271 234.64605366 51.94377261 235.90234375 48.59375 C236.51323853 46.96469727 236.51323853 46.96469727 237.13647461 45.30273438 C237.42143799 44.54283203 237.70640137 43.78292969 238 43 C236.26890361 44.15406426 234.55117218 45.33002045 232.875 46.5625 C228.23077963 48.88461018 223.80453745 49.67613636 218.69921875 48.4453125 C206.05210728 43.50878885 199.73890586 30.9718035 193.15625 19.8984375 C188.73375938 12.60132797 183.6299759 5.42718072 175 3 C175 2.01 175 1.02 175 0 C210.64 0 246.28 0 283 0 C283 0.99 283 1.98 283 3 C282.28714844 3.35191406 281.57429688 3.70382812 280.83984375 4.06640625 C258.10762012 15.78436271 251.99339606 40.60783812 244.03131104 63.1812439 C241.81559243 69.46062609 239.58370764 75.73425566 237.3515625 82.0078125 C237.12513439 82.64459867 236.89870628 83.28138485 236.66541672 83.93746758 C232.2377016 96.38601717 227.70235321 108.79330266 223.125 121.1875 C215.29469559 142.40592845 207.58369517 163.66615198 199.93725586 184.95141602 C199.24849232 186.86846184 198.55971381 188.78550228 197.87090492 190.70253181 C197.19584521 192.58139525 196.52091868 194.46030654 195.84599304 196.33921814 C193.44989418 203.00073744 191.03341827 209.65402768 188.58279419 216.29568481 C187.24758189 219.91448271 185.92104626 223.53643156 184.59509277 227.15863037 C184.00117721 228.77258693 183.40264092 230.38485249 182.7989502 231.99517822 C177.6491972 245.73436532 175.5812755 256.58954746 180 271 C181.69816202 274.69836866 183.56718925 276.7114595 187 279 C187 279.99 187 280.98 187 282 C160.93 282 134.86 282 108 282 C105.31273146 275.28182864 102.78973705 268.64454232 100.53125 261.7890625 C100.21458374 260.83627914 99.89791748 259.88349579 99.57165527 258.90184021 C98.54491615 255.81049868 97.52241809 252.71777304 96.5 249.625 C95.77893984 247.45099296 95.0575822 245.27708456 94.3359375 243.10327148 C92.89071402 238.74909897 91.44687194 234.394472 90.00390625 230.03955078 C88.08395981 224.24850667 86.15114222 218.46185414 84.21342468 212.67673779 C79.31559376 198.04966095 74.48865368 183.40057628 69.71131897 168.73370171 C61.7961998 144.44214087 53.84255569 120.16325002 45.80302429 95.91255856 C43.94546853 90.3087704 42.09292091 84.70342346 40.25097656 79.09448242 C38.41480563 73.50359312 36.5666375 67.91680079 34.71018982 62.33261299 C34.02038624 60.25112686 33.33464578 58.16828873 32.65345764 56.08396721 C23.13647418 25.74917462 23.13647418 25.74917462 1.625 3.6875 C0.820625 3.3471875 0.820625 3.3471875 0 3 C0 2.01 0 1.02 0 0 Z " fill="#000000" transform="translate(671,1589)"/>
<path d="M0 0 C0 34.98 0 69.96 0 106 C-1.32 106 -2.64 106 -4 106 C-4.3403125 104.87464844 -4.680625 103.74929688 -5.03125 102.58984375 C-9.65263232 87.76764494 -15.47462643 74.66269292 -26 63 C-26.62519531 62.29359375 -27.25039062 61.5871875 -27.89453125 60.859375 C-40.79035737 47.0968233 -58.41543306 41.08640141 -76.828125 39.71484375 C-93.89414665 39.30425955 -111.28265203 43.31635589 -124.0625 55.25 C-130.69688446 62.6805106 -134.93847805 70.83903216 -137.8125 80.3125 C-138.0074707 80.95058594 -138.20244141 81.58867188 -138.40332031 82.24609375 C-141.65243281 93.93602233 -142.29933118 106.0530628 -142.2746582 118.11694336 C-142.27902246 119.45278707 -142.28421119 120.78862829 -142.29014587 122.12446594 C-142.30336117 125.70307926 -142.30413455 129.28158587 -142.30158257 132.86021876 C-142.30050115 135.86920415 -142.3054256 138.87816896 -142.310188 141.88714987 C-142.3212221 148.9956649 -142.32175478 156.10412707 -142.31567383 163.21264648 C-142.30963494 170.5000661 -142.32195695 177.78729261 -142.3432439 185.07467932 C-142.36096032 191.37582897 -142.36684568 197.67691771 -142.36360615 203.9780913 C-142.36180955 207.72203472 -142.36426468 211.46584025 -142.37832069 215.20976067 C-143.359952 246.64926354 -143.359952 246.64926354 -130.05859375 274.16796875 C-127.86207084 276.09852438 -125.6190482 277.6904759 -123 279 C-123 279.99 -123 280.98 -123 282 C-159.3 282 -195.6 282 -233 282 C-233 281.01 -233 280.02 -233 279 C-231.20703125 277.67578125 -231.20703125 277.67578125 -228.8125 276.3125 C-219.90025299 270.58519393 -217.44538527 261.9743647 -215 252 C-214.40192863 247.52579559 -214.18435796 243.07051375 -214 238.5625 C-211.00078012 186.00108438 -186.82158726 137.9795391 -161 93 C-162.10021484 93.89332031 -162.10021484 93.89332031 -163.22265625 94.8046875 C-170.78391198 100.78137627 -177.72868596 105.64311517 -187.69921875 105.375 C-193.99115073 104.34948986 -198.79118424 99.84523566 -202.62890625 94.98828125 C-211.7947127 81.69655622 -213.49288195 66.72744903 -214.14135742 51.01171875 C-214.5381026 43.44129998 -215.29568487 39.47091316 -220.921875 34.19921875 C-223.36862279 32.7872797 -225.47099314 32.28785644 -228.25 31.8125 C-229.58804688 31.57466797 -229.58804688 31.57466797 -230.953125 31.33203125 C-231.62859375 31.22246094 -232.3040625 31.11289063 -233 31 C-233 29.68 -233 28.36 -233 27 C-220.00485502 23.31604599 -207.00412131 19.65213737 -194 16 C-192.95469116 15.70625488 -191.90938232 15.41250977 -190.83239746 15.10986328 C-184.37814903 13.29682553 -177.92213634 11.49027167 -171.46389771 9.6914978 C-169.36449474 9.1059257 -167.26559515 8.5185459 -165.16720581 7.92935181 C-162.21307697 7.10032566 -159.25719146 6.27787871 -156.30078125 5.45703125 C-155.41703827 5.20755737 -154.53329529 4.9580835 -153.62277222 4.7010498 C-152.80664459 4.47590698 -151.99051697 4.25076416 -151.1496582 4.01879883 C-150.44122269 3.82103348 -149.73278717 3.62326813 -149.00288391 3.41950989 C-147 3 -147 3 -143 3 C-142.67 22.47 -142.34 41.94 -142 62 C-140.02 58.7 -138.04 55.4 -136 52 C-134.32791092 49.64687768 -132.66896795 47.37564503 -130.875 45.125 C-130.40618408 44.5362207 -129.93736816 43.94744141 -129.4543457 43.34082031 C-114.4798074 24.87627449 -96.25544425 12.30489937 -73.75 4.625 C-73.05422852 4.38620117 -72.35845703 4.14740234 -71.64160156 3.90136719 C-48.55161604 -3.53694516 -23.79756946 0 0 0 Z " fill="#000000" transform="translate(2509,1589)"/>
<path d="M0 0 C0.00238835 1.29890828 0.00477671 2.59781656 0.00723743 3.9360857 C0.06464274 34.79497062 0.13740552 65.65377706 0.22898628 96.51257803 C0.24025395 100.31380495 0.25139248 104.11503223 0.26245117 107.91625977 C0.26465486 108.6729905 0.26685854 109.42972124 0.269129 110.20938321 C0.30446601 122.44954244 0.32935042 134.68970161 0.35034702 146.92989288 C0.37213777 159.49685461 0.40521919 172.06375037 0.44870156 184.63065594 C0.47516198 192.38017066 0.49289861 200.12960321 0.49934604 207.87916084 C0.50524179 213.82944996 0.52687437 219.77961788 0.55427551 225.72984886 C0.56305102 228.16501443 0.56677933 230.60020439 0.56500816 233.03538513 C0.56334965 236.36859695 0.58010469 239.70124393 0.60127258 243.03437805 C0.59642501 243.99063766 0.59157743 244.94689727 0.58658296 245.93213445 C0.68938258 255.78846318 2.62909147 264.42049407 9.015625 272.0625 C11.58542097 274.57159213 14.30954377 276.29710971 17.49609375 277.9296875 C17.99238281 278.28289062 18.48867187 278.63609375 19 279 C19 279.99 19 280.98 19 282 C-16.64 282 -52.28 282 -89 282 C-88.505 280.02 -88.505 280.02 -88 278 C-86.27326884 276.99002517 -84.54199195 275.9855886 -82.7734375 275.05078125 C-77.01674737 271.63987895 -74.04052052 264.12156155 -72 258 C-71.89947928 255.12653273 -71.85657746 252.27719454 -71.85955811 249.40348816 C-71.85658698 248.51494386 -71.85361586 247.62639957 -71.8505547 246.71092969 C-71.84185524 243.72158366 -71.8403584 240.73227762 -71.83886719 237.74291992 C-71.83423991 235.60445571 -71.82921538 233.46599232 -71.82382202 231.32752991 C-71.81068766 225.50930874 -71.80425109 219.69109912 -71.79981136 213.87286544 C-71.79688243 210.23968268 -71.79277797 206.60650308 -71.78830719 202.97332191 C-71.77462979 191.61116239 -71.76496421 180.24901009 -71.7611053 168.88684291 C-71.75662321 155.7610999 -71.73906927 142.63546095 -71.7101047 129.50974959 C-71.68850508 119.37039894 -71.67840194 109.23107761 -71.67706418 99.09170419 C-71.67601496 93.03289405 -71.67008219 86.9741817 -71.65224457 80.91539574 C-71.63579357 75.21663858 -71.63359398 69.51805303 -71.64238358 63.81928062 C-71.64315553 61.72708172 -71.63879045 59.6348737 -71.62892532 57.54269791 C-71.61625101 54.68741403 -71.62205815 51.83274213 -71.63250732 48.97746277 C-71.62445092 48.14875945 -71.61639452 47.32005613 -71.60809398 46.46624058 C-71.65666062 40.79525887 -72.58379618 36.37943551 -76.796875 32.23046875 C-79.55486448 30.69010228 -82.17341867 30.01476313 -85.25 29.3125 C-86.32765625 29.06113281 -87.4053125 28.80976562 -88.515625 28.55078125 C-89.33546875 28.36902344 -90.1553125 28.18726563 -91 28 C-91 26.68 -91 25.36 -91 24 C-70.37569836 18.12035891 -49.72743357 12.32946621 -29.03564453 6.6914978 C-26.88819606 6.10585776 -24.7412214 5.51847751 -22.59472656 4.92935181 C-19.5710228 4.10014793 -16.54557435 3.27765095 -13.51953125 2.45703125 C-12.61390945 2.20755737 -11.70828766 1.9580835 -10.77522278 1.7010498 C-9.52100777 1.36333557 -9.52100777 1.36333557 -8.24145508 1.01879883 C-7.51525467 0.82103348 -6.78905426 0.62326813 -6.04084778 0.41950989 C-4 0 -4 0 0 0 Z " fill="#000000" transform="translate(1054,1589)"/>
<path d="M0 0 C7.60228621 5.1805902 11.80830462 11.73966075 13.75 20.75 C14.82726916 31.76452758 14.04596719 41.4358924 7.125 50.5 C0.28541801 57.80591713 -8.68640072 61.55549804 -18.58203125 62.0859375 C-31.20027885 62.33924889 -41.7122768 60.74390565 -51.25 51.75 C-57.9381633 44.97063448 -60.22622542 36.51281817 -60.625 27.125 C-60.16942086 16.62769726 -55.80097372 9.19984097 -48.4375 2 C-34.48396334 -7.84955529 -14.7892622 -8.39166001 0 0 Z " fill="#000000" transform="translate(1038.25,1499.25)"/>
</svg>