<svg xmlns="http://www.w3.org/2000/svg" version="1.1" viewBox="671 1492 2104 479">
<path d="M0 0 C0.33 51.15 0.66 102.3 1 155 C4.3 148.73 7.6 142.46 11 136 C24.22496823 116.54040389 40.3574938 103.21823626 63.58203125 97.8515625 C70.2270296 96.6085174 76.88474882 96.65873528 83.625 96.6875 C84.28852478 96.68899048 84.95204956 96.69048096 85.63568115 96.6920166 C95.78582021 96.73303221 105.20506067 97.27721903 115 100 C116.01964844 100.26683594 117.03929687 100.53367187 118.08984375 100.80859375 C136.99997342 106.39963078 154.31249965 118.35051455 164.125 135.66015625 C171.16009283 148.69279801 175.10738864 162.36732242 175.13803101 177.27735901 C175.14085229 177.97583307 175.14367357 178.67430713 175.14658034 179.39394706 C175.15486197 181.71650032 175.15625904 184.0390055 175.15771484 186.36157227 C175.16238795 188.0344506 175.16753233 189.70732768 175.17311096 191.38020325 C175.18436069 194.97543276 175.19281002 198.57065414 175.19923019 202.16589546 C175.20995264 207.86216907 175.23020997 213.55838417 175.25234985 219.25462341 C175.31412762 235.45040189 175.36821125 251.64617674 175.40136719 267.84204102 C175.41977071 276.79267932 175.44877833 285.74321924 175.4893719 294.69378513 C175.5103463 299.4225607 175.52588551 304.1512128 175.52817917 308.88003731 C175.53034245 313.33463598 175.54638112 317.78897767 175.57256889 322.24349785 C175.57969988 323.86790419 175.58189342 325.49234188 175.57846642 327.11676025 C175.54926649 343.60523239 177.29317398 360.33507057 189 373 C190.64418383 374.03655068 192.30330285 375.05184571 194 376 C194 376.99 194 377.98 194 379 C164.3 379 134.6 379 104 379 C103.97812622 368.85636719 103.97812622 368.85636719 103.95581055 358.5078125 C103.90695436 336.81978269 103.84351814 315.13181551 103.77101372 293.44385219 C103.75974684 290.06966484 103.74860818 286.69547709 103.73754883 283.32128906 C103.7342433 282.31376611 103.7342433 282.31376611 103.730871 281.28588915 C103.69559049 270.43941224 103.67067433 259.59293538 103.64965298 248.74642253 C103.62781696 237.59985929 103.59447433 226.45336557 103.55129844 215.30686378 C103.52743397 209.05321673 103.50866083 202.79965097 103.50238609 196.54595947 C103.49630455 190.64936102 103.47619442 184.75297039 103.44572449 178.85644913 C103.43699326 176.70235771 103.43321138 174.54823908 103.43499184 172.39413071 C103.57480237 143.97307072 103.57480237 143.97307072 90.7890625 119.46484375 C83.50473463 113.5006015 75.93507958 111.65800262 66.74609375 112.1875 C58.12781611 113.09568293 51.41731184 115.58070343 44 120 C43.34515625 120.36867188 42.6903125 120.73734375 42.015625 121.1171875 C21.78788802 133.82911395 12.06865496 164.22203444 6.64501953 186.16113281 C2.83435311 202.93268055 0.84725542 219.81327808 0.85473633 237.00390625 C0.85137772 238.13730438 0.8480191 239.27070251 0.84455872 240.43844604 C0.8351399 244.14647549 0.8331105 247.85445938 0.83203125 251.5625 C0.82881342 254.16219094 0.82544896 256.7618817 0.82194519 259.36157227 C0.81597738 264.79476418 0.81405983 270.22793828 0.81469727 275.66113281 C0.81529829 281.91186214 0.804731 288.16250525 0.7889536 294.41321278 C0.7742294 300.4659034 0.7707111 306.51854765 0.77130699 312.57125854 C0.77013217 315.12914381 0.76573855 317.68702981 0.75797462 320.24490356 C0.74811082 323.82870544 0.75107751 327.41228788 0.75708008 330.99609375 C0.75146057 332.03748505 0.74584106 333.07887634 0.74005127 334.15182495 C0.77960726 343.50707672 1.38970158 353.0595203 5.875 361.4375 C6.61363281 362.85869141 6.61363281 362.85869141 7.3671875 364.30859375 C9.91735778 368.5121041 12.3244086 372.01459677 16.75 374.3125 C17.8225 374.869375 18.895 375.42625 20 376 C20 376.99 20 377.98 20 379 C-16.3 379 -52.6 379 -90 379 C-90 378.01 -90 377.02 -90 376 C-88.2421875 374.74609375 -88.2421875 374.74609375 -85.875 373.4375 C-77.45934843 368.07847659 -74.1243895 359.42550642 -72 350 C-71.36443706 345.24213477 -70.9998542 340.4719916 -70.625 335.6875 C-66.36484776 287.76717129 -44.10537472 243.52147871 -22.5859375 201.234375 C-20.93262781 197.86260057 -19.45025057 194.46302258 -18 191 C-18.4846875 191.51949219 -18.969375 192.03898437 -19.46875 192.57421875 C-25.70545176 199.06278731 -31.8944365 204.40253272 -41 206 C-47.07452528 206.0852565 -51.2648731 204.99855161 -56 201 C-67.23115272 189.90958854 -70.06172355 174.82868277 -70.16566467 159.56132507 C-70.16827805 158.47076309 -70.17089142 157.38020111 -70.17358398 156.2565918 C-70.180271 155.0914505 -70.18695801 153.9263092 -70.19384766 152.7258606 C-70.20786368 150.20286273 -70.2197686 147.67985243 -70.22979546 145.15683556 C-70.24626061 141.15870141 -70.26929423 137.16063638 -70.29469299 133.16255188 C-70.36563712 121.79730095 -70.42558441 110.4320068 -70.47680664 99.06665039 C-70.50521024 92.7807741 -70.5406419 86.49497515 -70.58346039 80.20918018 C-70.60572211 76.8901286 -70.6231329 73.57116178 -70.63390923 70.2520504 C-70.64611905 66.54512097 -70.6702927 62.83844103 -70.69702148 59.1315918 C-70.69761063 58.04710251 -70.69819977 56.96261322 -70.69880676 55.84526062 C-70.77006828 44.44626392 -70.77006828 44.44626392 -74.875 34.0625 C-79.53925111 30.98409427 -84.56464537 30.06626574 -90 29 C-90.33 27.68 -90.66 26.36 -91 25 C-72.34502107 19.4505351 -53.59574023 14.27896763 -34.81524658 9.17523193 C-31.76123717 8.34456189 -28.70793726 7.51130002 -25.65463352 6.6780405 C-22.70481487 5.87326695 -19.75464972 5.06977018 -16.80436516 4.26670647 C-15.40118465 3.88465926 -13.9980937 3.50228293 -12.59509468 3.11956978 C-10.6608267 2.59220435 -8.72605662 2.06668153 -6.79125977 1.54125977 C-5.69338638 1.24260513 -4.595513 0.9439505 -3.46437073 0.63624573 C-1 0 -1 0 0 0 Z " fill="#FFFFFF" transform="translate(1518,1492)"/>
<path d="M0 0 C0.09371367 20.97618518 0.1641111 41.95233551 0.20724869 62.92868805 C0.22781645 72.66981533 0.25582554 82.41081203 0.30175781 92.15185547 C0.34180367 100.64864207 0.36747479 109.14533403 0.37635398 117.64221239 C0.38153887 122.13538877 0.39360251 126.62829457 0.42292023 131.12138367 C0.4503709 135.36330231 0.45838615 139.60484277 0.45243073 143.84684181 C0.45351787 145.39142231 0.46129338 146.93601743 0.4768219 148.48052025 C0.62535056 164.03611276 -1.83650702 179.5283518 -11.3125 192.375 C-15.64849173 196.61015471 -20.1306686 199.13722721 -26.25 199.625 C-34.26178005 199.26335715 -42.17180373 194.23261417 -48 189 C-48 188.34 -48 187.68 -48 187 C-48.66 187 -49.32 187 -50 187 C-50.66 186.34 -51.32 185.68 -52 185 C-51.69932617 185.55123535 -51.39865234 186.1024707 -51.08886719 186.67041016 C-50.66250977 187.45206543 -50.23615234 188.2337207 -49.796875 189.0390625 C-49.31710205 189.91844482 -48.8373291 190.79782715 -48.34301758 191.70385742 C-47.26665198 193.67760675 -46.19098622 195.65173785 -45.1159668 197.6262207 C-42.37575172 202.65690724 -39.62658499 207.68198701 -36.84765625 212.69140625 C-17.8832486 246.95467897 -1.69904914 283.71897487 0.359375 323.37890625 C1.57900885 349.87025672 1.57900885 349.87025672 15.75 371.5 C17.90697395 373.00516811 17.90697395 373.00516811 20 374 C20 374.99 20 375.98 20 377 C12.68939031 377.24262198 5.82201932 376.56902878 -1.375 375.3125 C-2.41720703 375.13315918 -3.45941406 374.95381836 -4.53320312 374.76904297 C-25.93162326 370.96929307 -45.406158 365.39936196 -64 354 C-65.66626971 352.9993387 -67.33278773 351.9990901 -69 351 C-69.76441406 351.556875 -70.52882813 352.11375 -71.31640625 352.6875 C-92.48763526 367.76977145 -115.12226267 377.6759486 -141.5625 377.375 C-142.86952881 377.36484863 -144.17655762 377.35469727 -145.52319336 377.34423828 C-175.47396776 376.86985067 -206.74483361 369.89459322 -230 350 C-230.95390625 349.195625 -231.9078125 348.39125 -232.890625 347.5625 C-262.04215608 322.07482255 -271.98947693 284.10435315 -274.6875 246.8125 C-276.70507033 205.15807924 -270.22530167 161.55262789 -241.59765625 129.42626953 C-227.06587605 113.51121351 -208.80110382 103.34842481 -188 98 C-186.75476562 97.67902344 -185.50953125 97.35804687 -184.2265625 97.02734375 C-158.87790705 91.26847316 -133.37122757 93.79947431 -111 107 C-107.17357884 109.48880499 -103.56128115 112.14737176 -100 115 C-99.36964844 115.47824219 -98.73929688 115.95648437 -98.08984375 116.44921875 C-88.24944896 124.27222053 -80.43084549 135.73951611 -74.39355469 146.66748047 C-73.94486023 147.47861298 -73.49616577 148.28974548 -73.03387451 149.12545776 C-72.69269592 149.7440567 -72.35151733 150.36265564 -72 151 C-71.95326451 136.09223287 -71.91800356 121.18447142 -71.89637566 106.27664661 C-71.88606621 99.35457217 -71.87201223 92.43254326 -71.84912109 85.51049805 C-71.82704623 78.83209798 -71.81543556 72.15375504 -71.81024551 65.475317 C-71.80654617 62.92559756 -71.79932244 60.37588074 -71.78853989 57.82618141 C-71.77405178 54.25881955 -71.77202096 50.69165406 -71.77294922 47.12426758 C-71.76216339 45.53822975 -71.76216339 45.53822975 -71.75115967 43.92015076 C-71.75528366 42.4583992 -71.75528366 42.4583992 -71.75949097 40.96711731 C-71.75764738 40.12367673 -71.75580379 39.28023615 -71.75390434 38.41123676 C-72.04121019 35.59622397 -72.72193945 33.52300377 -74 31 C-77.41211416 28.72525723 -79.6568529 28.43370356 -83.6875 27.875 C-84.86699219 27.70742187 -86.04648438 27.53984375 -87.26171875 27.3671875 C-88.16535156 27.24601562 -89.06898438 27.12484375 -90 27 C-90 25.68 -90 24.36 -90 23 C-78.70957423 19.99681906 -67.4181006 16.99761424 -56.12526226 14.00351715 C-50.88189338 12.61319579 -45.63889892 11.22149415 -40.39672852 9.82666016 C-35.34016247 8.48126561 -30.28265467 7.13946802 -25.22446632 5.80018616 C-23.29237518 5.28793515 -21.36063017 4.77437685 -19.42923546 4.25950623 C-16.72935601 3.54000943 -14.02829649 2.82512078 -11.3269043 2.11132812 C-10.52417587 1.89626114 -9.72144745 1.68119415 -8.89439392 1.45960999 C-5.84856402 0.65890148 -3.16393758 0 0 0 Z M-177 116 C-177.60457031 116.47953125 -178.20914062 116.9590625 -178.83203125 117.453125 C-197.79810896 134.40700034 -202.20751862 166.17377231 -204 190 C-204.35511174 197.37090827 -204.33963465 204.74734695 -204.3125 212.125 C-204.31100952 213.12935089 -204.30951904 214.13370178 -204.3079834 215.16848755 C-204.26166151 232.61161621 -203.39859996 249.70806539 -201 267 C-200.85546387 268.05106934 -200.71092773 269.10213867 -200.56201172 270.18505859 C-196.88961087 295.81052677 -190.04889902 320.68072638 -175 342 C-174.45859375 342.78761719 -173.9171875 343.57523438 -173.359375 344.38671875 C-172.68648437 345.18529297 -172.68648437 345.18529297 -172 346 C-171.34 346 -170.68 346 -170 346 C-169.773125 346.5878125 -169.54625 347.175625 -169.3125 347.78125 C-164.90800893 355.22693728 -153.15709244 359.25167983 -145.1394043 361.52832031 C-130.09161708 364.84594269 -113.9119688 361.62478268 -100.625 354.25 C-86.15792414 344.75141484 -75.05753769 330.68418133 -71.41114426 313.55419922 C-70.68349128 309.0337161 -70.70528153 304.53638518 -70.70947266 299.96679688 C-70.70275543 298.90038971 -70.69603821 297.83398254 -70.68911743 296.73526001 C-70.67021092 293.22970846 -70.66621633 289.72434929 -70.6640625 286.21875 C-70.65762741 283.76127039 -70.65089853 281.30379152 -70.64389038 278.84631348 C-70.63193442 273.69863105 -70.62820762 268.55101563 -70.62939453 263.40332031 C-70.62959714 256.84832839 -70.60234693 250.29377282 -70.56785011 243.73888397 C-70.54546591 238.66152017 -70.54156058 233.58425926 -70.54261398 228.5068512 C-70.54027334 226.09264123 -70.53153784 223.67842774 -70.51594925 221.26426697 C-70.30397848 185.03321165 -82.49728064 152.2687021 -108 126 C-119.65305038 114.50944235 -133.62447039 106.9969023 -150.1875 106.75 C-160.68078883 106.86937757 -168.79071778 109.43257423 -177 116 Z " fill="#FFFFFF" transform="translate(1367,1494)"/>
<path d="M0 0 C0.89841614 0.00054382 1.79683228 0.00108765 2.72247314 0.00164795 C28.9344281 0.07440235 53.48109667 4.3633349 77 16.375 C78.41152344 17.06529297 78.41152344 17.06529297 79.8515625 17.76953125 C87.01160101 21.43022699 93.00089341 26.04246081 99 31.375 C99.73347656 32.0246875 100.46695313 32.674375 101.22265625 33.34375 C112.86387562 44.28963642 119.0672428 58.92594268 120.16796875 74.796875 C120.30748571 91.4272963 117.38193329 107.39383155 113 123.375 C112.73477539 124.34759766 112.46955078 125.32019531 112.19628906 126.32226562 C104.5785993 153.71072247 93.13074495 179.72410591 81 205.375 C80.14042905 207.20433502 79.28105114 209.03376076 78.421875 210.86328125 C75.34392033 217.39938711 72.25554978 223.924942 69 230.375 C69.67804687 229.77171875 70.35609375 229.1684375 71.0546875 228.546875 C80.6548062 220.30300575 87.8959914 216.56469711 100.7265625 216.99609375 C107.9077747 217.82733192 112.12139008 220.93403381 116.7734375 226.30078125 C119.86506214 231.52897451 120.30014191 237.38645555 120.8125 243.3125 C122.00696536 254.75189984 124.2682546 268.14612999 133 276.375 C134.64418383 277.41155068 136.30330285 278.42684571 138 279.375 C138 280.365 138 281.355 138 282.375 C126.03093506 288.35953247 101.1878764 280.65016447 88.9375 276.6875 C75.7590361 272.18708586 63.90579602 266.06266801 53 257.375 C50.14844969 258.68451023 48.51302928 259.81962544 46.125 262 C24.20370975 281.00154124 -7.23550086 283.99357928 -35 282.375 C-62.3046201 280.10693134 -89.71451019 270.74270305 -108 249.375 C-117.06518735 237.07485668 -123.10834459 222.74294323 -124 207.375 C-124.06445312 206.31023437 -124.12890625 205.24546875 -124.1953125 204.1484375 C-124.94469773 180.41790512 -115.18814108 161.08652372 -99.6328125 143.734375 C-88.60419838 132.2356888 -75.7670443 123.60528521 -62.08105469 115.60351562 C-60.27929988 114.53987999 -58.50057561 113.43741244 -56.7265625 112.328125 C-42.21112577 103.47992428 -25.95411801 97.45288035 -10.1484375 91.2890625 C22.70967406 79.64358244 22.70967406 79.64358244 45.00390625 54.55859375 C47.33660859 47.10309411 47.05406845 38.7838355 44.15234375 31.49609375 C39.12047495 22.23404372 31.09444806 16.86901653 21.1315918 13.79931641 C4.35736388 9.27883545 -13.26661539 11.17683917 -29 18.375 C-42.07937907 25.99191466 -50.23677627 37.16138889 -57 50.375 C-57.69222656 51.70337891 -57.69222656 51.70337891 -58.3984375 53.05859375 C-67.68197076 72.95610294 -69.349313 95.77963013 -71 117.375 C-71.99 117.705 -72.98 118.035 -74 118.375 C-77.26137997 106.66004676 -79.98083613 94.86088505 -82.58203125 82.984375 C-83.00462677 81.06242404 -83.42729141 79.14048829 -83.85002136 77.21856689 C-84.72729221 73.2255168 -85.60168205 69.23184805 -86.47436523 65.23779297 C-87.59424842 60.11491214 -88.7246473 54.99441128 -89.85750294 49.87438583 C-90.73012043 45.92256121 -91.59565152 41.96920963 -92.4591732 38.01538849 C-92.87326718 36.12493879 -93.289952 34.23505468 -93.70926857 32.34575653 C-94.29126001 29.72002578 -94.86330795 27.09231961 -95.43286133 24.46386719 C-95.60783646 23.68470444 -95.78281158 22.90554169 -95.96308899 22.10276794 C-97.11415311 16.71745934 -97.11415311 16.71745934 -96 13.375 C-62.286328 6.44228825 -62.286328 6.44228825 -47.3125 4.0625 C-46.39154541 3.91586914 -45.47059082 3.76923828 -44.52172852 3.61816406 C-41.68399191 3.18123665 -38.84308962 2.7755775 -36 2.375 C-34.82614746 2.19839844 -33.65229492 2.02179688 -32.44287109 1.83984375 C-21.613665 0.32128724 -10.92733424 -0.02500187 0 0 Z M42.84936523 80.26977539 C35.36522085 85.50126642 27.57302236 89.80002309 19.4375 93.9375 C4.93295784 101.34770943 -7.93043853 109.39355117 -20 120.375 C-21.43859375 121.67050781 -21.43859375 121.67050781 -22.90625 122.9921875 C-42.22499907 141.27987974 -50.28922744 164.53279199 -51.16015625 190.8359375 C-51.6836424 213.4845432 -48.02109047 233.7617885 -34.75 252.5625 C-25.96094822 261.55130295 -15.76541875 266.69371629 -3.125 266.875 C13.20245409 266.66120415 26.92210625 259.31541087 38.390625 248.1171875 C45.19090203 240.97078859 48.25695286 233.73081677 48.24050903 223.7247467 C48.24325836 222.42775848 48.24600769 221.13077026 48.24884033 219.79447937 C48.24176384 218.37478543 48.23449425 216.95509245 48.22705078 215.53540039 C48.22648609 214.02699796 48.22680436 212.51859498 48.22793579 211.01019287 C48.22850805 206.93011043 48.21677432 202.85014632 48.20278788 198.7700913 C48.19025935 194.50065926 48.18910835 190.23122432 48.18673706 185.96177673 C48.18052852 177.88360164 48.16412619 169.80548088 48.14403808 161.72732967 C48.12165958 152.52783369 48.11068074 143.32833507 48.10064721 134.12881863 C48.0797594 115.21084832 48.04459562 96.29292853 48 77.375 C45.97041398 77.375 44.45333675 79.13838356 42.84936523 80.26977539 Z " fill="#FFFFFF" transform="translate(2637,1588.625)"/>
<path d="M0 0 C1.31218506 0.00181274 1.31218506 0.00181274 2.65087891 0.00366211 C39.18057425 0.14004141 74.75147497 8.55394429 102.2109375 33.96484375 C114.40174233 46.45940617 120.48058913 61.82305634 120.6953125 79.19140625 C120.03281707 126.7806611 97.14045786 173.27109371 76.59375 215.13671875 C74.1278136 220.16829453 71.79540639 225.23603161 69.5625 230.375 C70.07417725 229.88878174 70.58585449 229.40256348 71.11303711 228.90161133 C80.02985617 220.52412081 88.87466796 216.98479073 101.0390625 217.09765625 C107.37667767 217.59651509 110.85463557 219.74304065 115.375 224.0625 C119.6862741 230.59100078 120.67963663 236.78514052 121.4375 244.5 C122.58489636 255.81165506 125.06666287 268.16828821 133.5625 276.375 C135.20668383 277.41155068 136.86580285 278.42684571 138.5625 279.375 C138.5625 280.365 138.5625 281.355 138.5625 282.375 C126.59343506 288.35953247 101.7503764 280.65016447 89.5 276.6875 C76.3215361 272.18708586 64.46829602 266.06266801 53.5625 257.375 C50.71094969 258.68451023 49.07552928 259.81962544 46.6875 262 C24.76620975 281.00154124 -6.67300086 283.99357928 -34.4375 282.375 C-62.45320602 280.04786472 -89.73624146 270.24491032 -108.4375 248.375 C-120.82990951 231.67785876 -125.95471498 209.97442181 -123.16503906 189.36181641 C-118.61901088 163.00644337 -100.62956429 142.23908739 -79.57470703 126.87402344 C-67.20914894 118.20089953 -54.1286929 110.72477434 -40.4375 104.375 C-39.35976318 103.86622314 -39.35976318 103.86622314 -38.26025391 103.34716797 C-27.73323173 98.39021426 -17.04096299 94.00366975 -6.1875 89.8125 C4.04580031 85.84974197 13.97005297 81.71430008 23.5625 76.375 C24.59246094 75.80394531 25.62242187 75.23289062 26.68359375 74.64453125 C35.07608875 69.6682486 42.29910491 63.1501644 45.94140625 53.890625 C47.91701593 45.88878452 47.5405111 36.69723738 43.5625 29.375 C37.37641522 20.08812084 28.33231047 15.28730887 17.64208984 12.77905273 C0.21998467 9.39403465 -18.97682527 11.70501855 -33.875 21.75 C-55.34109038 38.06001965 -64.02784518 64.25705572 -67.86474609 90.04760742 C-69.10165645 99.12533798 -69.98459978 108.22329207 -70.4375 117.375 C-71.7575 117.375 -73.0775 117.375 -74.4375 117.375 C-77.33247431 104.26007432 -80.21899529 91.14331991 -83.09464359 78.02414227 C-84.43009143 71.93288999 -85.76847769 65.84231412 -87.11352539 59.75317383 C-88.41069275 53.88028337 -89.70021161 48.00576192 -90.98437309 42.13001442 C-91.47643633 39.88505669 -91.97128457 37.64070757 -92.46891975 35.39697838 C-93.16375748 32.26188939 -93.84879243 29.12481114 -94.53149414 25.98706055 C-94.74080566 25.05342178 -94.95011719 24.11978302 -95.16577148 23.15785217 C-95.34950821 22.30389862 -95.53324493 21.44994507 -95.72254944 20.57011414 C-95.96728548 19.45704911 -95.96728548 19.45704911 -96.21696568 18.32149792 C-96.4375 16.375 -96.4375 16.375 -95.4375 13.375 C-61.723828 6.44228825 -61.723828 6.44228825 -46.75 4.0625 C-45.82904541 3.91586914 -44.90809082 3.76923828 -43.95922852 3.61816406 C-41.1214845 3.18123551 -38.28063797 2.77529326 -35.4375 2.375 C-34.25712158 2.19839844 -33.07674316 2.02179688 -31.8605957 1.83984375 C-21.22250218 0.35394679 -10.73452661 -0.02759256 0 0 Z M43.41235352 80.26953125 C35.96631483 85.47399487 28.21810224 89.75739283 20.125 93.875 C3.45110741 102.41643509 -10.15286232 111.09983241 -23.4375 124.375 C-24.05286621 124.97642822 -24.66823242 125.57785645 -25.30224609 126.19750977 C-43.71861221 144.29551431 -50.25391757 168.42798122 -50.67211914 193.62841797 C-50.78311099 214.35041964 -47.91923138 237.79348835 -33.18359375 253.75390625 C-23.6718746 262.58469696 -13.48864692 267.01806975 -0.49291992 266.84790039 C14.80647917 266.17860836 28.11376136 258.88445667 38.8828125 248.32421875 C45.79699106 240.71459074 48.69115212 233.17271709 48.68275452 223.0032196 C48.68412918 221.71739487 48.68550385 220.43157013 48.68692017 219.10678101 C48.68338147 217.68926978 48.67974667 216.2717588 48.67602539 214.85424805 C48.6757432 213.35599265 48.67590187 211.85773712 48.6764679 210.35948181 C48.67675464 206.29791182 48.67087772 202.23637139 48.66389394 198.17480826 C48.65764 193.92804855 48.65705498 189.68128815 48.65586853 185.43452454 C48.65276124 177.39525994 48.64455595 169.35600895 48.63451904 161.31675035 C48.62333923 152.16324331 48.61784274 143.00973563 48.61282361 133.85622346 C48.60237285 115.02914126 48.58478504 96.20207173 48.5625 77.375 C46.5329802 77.375 45.01620058 79.13812974 43.41235352 80.26953125 Z " fill="#FFFFFF" transform="translate(2120.4375,1588.625)"/>
<path d="M0 0 C43.89 0 87.78 0 133 0 C133 0.99 133 1.98 133 3 C132.48050781 3.24234375 131.96101563 3.4846875 131.42578125 3.734375 C122.01857238 8.25539959 116.77128902 13.76682866 112.98828125 23.640625 C108.36332964 39.07217085 109.62881773 55.01976349 114.328125 70.234375 C114.58205521 71.06789993 114.83598541 71.90142487 115.09761047 72.76020813 C119.62327686 87.43955052 124.51189495 102.00801618 129.33063126 116.59298706 C130.48599798 120.09132206 131.63936656 123.5903146 132.79280758 127.0892849 C142.20684658 155.64446828 151.68855746 184.17690565 161.22509766 212.69140625 C163.4884915 219.45924117 165.74515357 226.229313 168 233 C174.29614679 216.56063817 180.47088202 200.0786443 186.5625 183.5625 C194.03531769 163.30236146 201.54169398 143.05486154 209.0625 122.8125 C209.62645604 121.29450531 210.19041072 119.77651011 210.75436401 118.2585144 C219.8279052 93.83590846 228.90863212 69.41597597 238 45 C237.67 44.67 237.34 44.34 237 44 C236.01 44.639375 235.02 45.27875 234 45.9375 C230.05997066 48.16171011 226.54348539 49.2073416 222 49 C208.53415643 45.15261612 200.63650155 31.48284733 193.8125 20.1875 C188.7721035 11.87631366 185.02320406 6.88931209 176 3 C176 2.01 176 1.02 176 0 C211.64 0 247.28 0 284 0 C284 0.99 284 1.98 284 3 C283.29875 3.3403125 282.5975 3.680625 281.875 4.03125 C266.40503604 11.93438376 259.44813578 24.38953706 253.25390625 40.1171875 C252.90977188 40.98489777 252.56563751 41.85260803 252.21107483 42.74661255 C248.666848 51.74373234 245.32814714 60.81424067 242.02056885 69.90048218 C240.07935067 75.23180353 238.12697397 80.55904162 236.17578125 85.88671875 C235.76124695 87.01920547 235.34671265 88.1516922 234.9196167 89.3184967 C230.10394577 102.46460807 225.2320468 115.58979653 220.35780716 128.71427155 C219.1288578 132.02346117 217.90027188 135.33278573 216.67163086 138.64208984 C215.20177312 142.60102535 213.73187069 146.55994424 212.26179504 150.51879883 C207.90580147 162.24999364 203.55900672 173.98458691 199.21447754 185.72003174 C198.00378091 188.98978881 196.79251421 192.25933411 195.58105469 195.52880859 C191.81546529 205.69201713 188.05199555 215.85599007 184.29848099 226.02366447 C182.24703331 231.58042896 180.19324502 237.13632526 178.13807297 242.69171333 C176.90309927 246.03039607 175.66925 249.36948316 174.43847656 252.7097168 C169.61541524 265.79707817 164.73071828 278.85379649 159.5703125 291.8125 C159.16875946 292.82403641 158.76720642 293.83557281 158.35348511 294.87776184 C148.72472959 318.83187701 133.77163887 339.47593305 113 355 C112.21496094 355.58910156 111.42992187 356.17820312 110.62109375 356.78515625 C108.12154699 358.59290094 105.57735252 360.30505063 103 362 C101.98292969 362.68707031 100.96585938 363.37414063 99.91796875 364.08203125 C87.37159502 372.25226742 71.89225737 379.88525288 57 382 C54.34688263 376.57502595 51.69599464 371.14897034 49.04711914 365.72192383 C48.14668181 363.87787861 47.24564812 362.03412447 46.34399414 360.19067383 C45.04414491 357.53283744 43.74648136 354.87394341 42.44921875 352.21484375 C42.0491008 351.39789536 41.64898285 350.58094696 41.23674011 349.73924255 C35 336.93855631 35 336.93855631 35 333 C48.44841411 333.91077156 48.44841411 333.91077156 53.625 334.5625 C72.40601007 336.43752719 92.43059272 335.34634215 110 328 C111.69189453 327.29423828 111.69189453 327.29423828 113.41796875 326.57421875 C126.44249851 320.62298869 139.31259851 310.27337687 145 296.75 C145.96138891 293.14479157 146.36960667 291.42401668 145 288 C143.07975116 285.11962674 140.63183838 284.33521371 137.3671875 283.43920898 C132.00407184 282.4441342 126.50173706 282.51190791 121.0625 282.375 C119.80630859 282.33632812 118.55011719 282.29765625 117.25585938 282.2578125 C114.17071574 282.16396783 111.08557135 282.07827684 108 282 C107.74612518 281.22584747 107.49225037 280.45169495 107.23068237 279.65408325 C88.09575067 221.31806572 68.72631553 163.06125194 49.28393555 104.82710266 C45.96538776 94.88723552 42.64798116 84.94700018 39.33837891 75.00415039 C38.91748002 73.73998983 38.91748002 73.73998983 38.48807812 72.45029068 C37.21660125 68.63140117 35.94567473 64.81233094 34.67604065 60.99282837 C25.07189849 27.55085057 25.07189849 27.55085057 1.72265625 3.8125 C1.15417969 3.544375 0.58570313 3.27625 0 3 C0 2.01 0 1.02 0 0 Z " fill="#FFFFFF" transform="translate(1719,1589)"/>
<path d="M0 0 C43.56 0 87.12 0 132 0 C132 0.99 132 1.98 132 3 C130.56429734 3.81567174 129.12636566 4.62742093 127.6875 5.4375 C126.48673828 6.11619141 126.48673828 6.11619141 125.26171875 6.80859375 C123 8 123 8 120 9 C118.92214303 10.76770385 118.92214303 10.76770385 118 13 C117.525625 13.87914062 117.05125 14.75828125 116.5625 15.6640625 C111.54796661 25.16660328 109.86637516 32.99890983 109.6875 43.625 C109.66067139 44.65294678 109.66067139 44.65294678 109.63330078 45.70166016 C109.65790411 61.17715645 114.93231531 75.97606584 119.6875 90.5 C120.38115218 92.64169821 121.07433305 94.78354911 121.76708984 96.92553711 C136.4175312 142.08755569 151.51524502 187.11762163 167 232 C170.50468631 223.76194235 173.75818716 215.45900764 176.8515625 207.05859375 C177.54429277 205.18707837 178.23702384 203.31556329 178.92978764 201.44406033 C179.66069873 199.46810881 180.39041953 197.49172157 181.11978149 195.51519775 C182.65105218 191.36577137 184.18589134 187.21767074 185.72143555 183.06982422 C186.24419045 181.65765531 186.76694129 180.24548489 187.28968811 178.83331299 C187.5491176 178.13248848 187.8085471 177.43166397 188.07583809 176.70960236 C188.86475987 174.57803621 189.65336779 172.44635419 190.44187927 170.31463623 C195.21490258 157.4116866 200.00859171 144.51648306 204.8125 131.625 C205.19330719 130.60262238 205.57411438 129.58024475 205.96646118 128.52688599 C210.28490774 116.93390314 214.61728533 105.34625665 218.96875 93.765625 C219.58166145 92.13389847 219.58166145 92.13389847 220.20695496 90.46920776 C222.1489623 85.2996768 224.09277031 80.13083832 226.0402832 74.96337891 C230.15848928 64.01983085 234.1630767 53.04543895 238 42 C237.21786133 42.67615356 237.21786133 42.67615356 236.41992188 43.3659668 C232.25621526 46.88880848 228.8042776 48.98574838 223.2890625 49.22265625 C216.12326289 48.52564161 210.84362309 44.66083618 206.03515625 39.52734375 C201.12318585 33.4274496 197.15175575 26.61969083 193.15625 19.8984375 C188.73375938 12.60132797 183.6299759 5.42718072 175 3 C175 2.01 175 1.02 175 0 C210.64 0 246.28 0 283 0 C283 0.99 283 1.98 283 3 C282.28714844 3.35191406 281.57429688 3.70382812 280.83984375 4.06640625 C260.6771054 14.45985011 254.13295977 34.55421922 246.9453125 54.8203125 C246.4827294 56.11409903 246.01972531 57.40773511 245.55633545 58.70123291 C244.57986646 61.42925444 243.60595801 64.15816946 242.63421631 66.88787842 C241.09814954 71.2024559 239.55584915 75.51478797 238.01220703 79.82666016 C237.75402884 80.54787489 237.49585064 81.26908962 237.22984886 82.01215935 C236.70947972 83.46577562 236.18909338 84.91938574 235.66868973 86.37298965 C234.89203384 88.54293876 234.11591948 90.71308087 233.3399353 92.88327026 C229.22305953 104.39445066 225.06358544 115.88971148 220.875 127.375 C219.61431754 130.8345386 218.3540055 134.29421209 217.09375 137.75390625 C216.77480774 138.62932571 216.45586548 139.50474518 216.1272583 140.4066925 C208.87366354 160.32335951 201.66793234 180.25748725 194.46191406 200.19140625 C192.88200813 204.56173325 191.30070592 208.93154959 189.71777344 213.30078125 C188.02878012 217.96306348 186.34310811 222.62653076 184.66046143 227.29110718 C184.06040919 228.9528661 183.45915978 230.6141933 182.85662842 232.27505493 C182.04172016 234.52203056 181.23121139 236.77054385 180.421875 239.01953125 C179.75043457 240.87735229 179.75043457 240.87735229 179.06542969 242.77270508 C175.73669613 252.85577771 176.94096125 262.946957 180.8125 272.75390625 C182.34089418 275.64478341 184.30374687 277.20249791 187 279 C187 279.99 187 280.98 187 282 C160.93 282 134.86 282 108 282 C105.34491683 275.36229206 102.83980146 268.80622201 100.6015625 262.03515625 C100.12715225 260.61123817 100.12715225 260.61123817 99.64315796 259.15855408 C98.97112978 257.13946087 98.30055239 255.11988428 97.63134766 253.09985352 C96.66502927 250.18331615 95.69432561 247.26827392 94.72265625 244.35351562 C91.51214908 234.70410283 88.33425689 225.04439945 85.19580078 215.37133789 C75.08125889 184.19970576 64.82010391 153.077137 54.49085808 121.97606182 C51.76763723 113.77581806 49.04918543 105.57405556 46.34228516 97.3684082 C43.93631492 90.07499619 41.52175378 82.7844953 39.09690511 75.49733704 C37.82763502 71.68206047 36.56228205 67.86560051 35.30733109 64.04558754 C25.29233875 29.23022632 25.29233875 29.23022632 1.625 3.6875 C0.820625 3.3471875 0.820625 3.3471875 0 3 C0 2.01 0 1.02 0 0 Z " fill="#FFFFFF" transform="translate(671,1589)"/>
<path d="M0 0 C0 34.98 0 69.96 0 106 C-1.32 106 -2.64 106 -4 106 C-4.3403125 104.87464844 -4.680625 103.74929688 -5.03125 102.58984375 C-9.65263232 87.76764494 -15.47462643 74.66269292 -26 63 C-26.62519531 62.29359375 -27.25039062 61.5871875 -27.89453125 60.859375 C-40.79035737 47.0968233 -58.41543306 41.08640141 -76.828125 39.71484375 C-93.89414665 39.30425955 -111.28265203 43.31635589 -124.0625 55.25 C-139.69334812 72.64081003 -142.14079645 95.18536196 -142.16113281 117.54931641 C-142.16577277 118.88442112 -142.17079897 120.21952453 -142.17617798 121.55462646 C-142.18919075 125.15416692 -142.19572497 128.75368882 -142.20018864 132.35324907 C-142.20313749 134.61112617 -142.20724553 136.8689984 -142.21169281 139.12687302 C-142.2253385 146.2175413 -142.23501941 153.30819821 -142.2388947 160.39887869 C-142.24336827 168.53530449 -142.26089587 176.67156171 -142.2898953 184.80793631 C-142.31163322 191.13020745 -142.32160539 197.45243157 -142.32293582 203.77473962 C-142.32397523 207.53553754 -142.32969599 211.29617638 -142.34775543 215.05693436 C-143.3765377 246.57442396 -143.3765377 246.57442396 -130.05859375 274.16796875 C-127.86207084 276.09852438 -125.6190482 277.6904759 -123 279 C-123 279.99 -123 280.98 -123 282 C-159.3 282 -195.6 282 -233 282 C-233 281.01 -233 280.02 -233 279 C-231.2421875 277.74609375 -231.2421875 277.74609375 -228.875 276.4375 C-220.91328174 271.35501947 -217.94903226 263.94811154 -215.63378906 255.08911133 C-214.52029657 249.66190776 -214.32540884 244.21012318 -214.0625 238.6875 C-212.86692603 219.04075204 -209.30917076 200.63357422 -203 182 C-202.70561035 181.11747559 -202.4112207 180.23495117 -202.10791016 179.32568359 C-192.79558104 151.83748318 -178.76777441 126.12456178 -165.30224609 100.49462891 C-163.83272164 97.67955563 -162.40236378 94.84901274 -161 92 C-161.40089844 92.44730469 -161.80179688 92.89460938 -162.21484375 93.35546875 C-168.58650005 100.13167466 -175.76699146 104.93154996 -185.25 105.375 C-191.38071141 105.28439835 -195.27233764 102.53466738 -199.65625 98.4609375 C-211.66570319 85.5323935 -213.44765718 67.82346617 -214.14135742 51.01171875 C-214.5381026 43.44129998 -215.29568487 39.47091316 -220.921875 34.19921875 C-223.36862279 32.7872797 -225.47099314 32.28785644 -228.25 31.8125 C-229.58804688 31.57466797 -229.58804688 31.57466797 -230.953125 31.33203125 C-231.62859375 31.22246094 -232.3040625 31.11289063 -233 31 C-233 29.68 -233 28.36 -233 27 C-220.00485502 23.31604599 -207.00412131 19.65213737 -194 16 C-192.95469116 15.70625488 -191.90938232 15.41250977 -190.83239746 15.10986328 C-184.37814903 13.29682553 -177.92213634 11.49027167 -171.46389771 9.6914978 C-169.36449474 9.1059257 -167.26559515 8.5185459 -165.16720581 7.92935181 C-162.21307697 7.10032566 -159.25719146 6.27787871 -156.30078125 5.45703125 C-155.41703827 5.20755737 -154.53329529 4.9580835 -153.62277222 4.7010498 C-152.80664459 4.47590698 -151.99051697 4.25076416 -151.1496582 4.01879883 C-150.44122269 3.82103348 -149.73278717 3.62326813 -149.00288391 3.41950989 C-147 3 -147 3 -143 3 C-142.67 22.47 -142.34 41.94 -142 62 C-140.02 58.7 -138.04 55.4 -136 52 C-134.32791092 49.64687768 -132.66896795 47.37564503 -130.875 45.125 C-130.40618408 44.5362207 -129.93736816 43.94744141 -129.4543457 43.34082031 C-114.4798074 24.87627449 -96.25544425 12.30489937 -73.75 4.625 C-73.05422852 4.38620117 -72.35845703 4.14740234 -71.64160156 3.90136719 C-48.55161604 -3.53694516 -23.79756946 0 0 0 Z " fill="#FFFFFF" transform="translate(2509,1589)"/>
<path d="M0 0 C0.00238835 1.29890828 0.00477671 2.59781656 0.00723743 3.9360857 C0.06464274 34.79497062 0.13740552 65.65377706 0.22898628 96.51257803 C0.24025395 100.31380495 0.25139248 104.11503223 0.26245117 107.91625977 C0.26465486 108.6729905 0.26685854 109.42972124 0.269129 110.20938321 C0.30446601 122.44954244 0.32935042 134.68970161 0.35034702 146.92989288 C0.37213777 159.49685461 0.40521919 172.06375037 0.44870156 184.63065594 C0.47516198 192.38017066 0.49289861 200.12960321 0.49934604 207.87916084 C0.50524179 213.82944996 0.52687437 219.77961788 0.55427551 225.72984886 C0.56305102 228.16501443 0.56677933 230.60020439 0.56500816 233.03538513 C0.56334965 236.36859695 0.58010469 239.70124393 0.60127258 243.03437805 C0.59642501 243.99063766 0.59157743 244.94689727 0.58658296 245.93213445 C0.68938258 255.78846318 2.62909147 264.42049407 9.015625 272.0625 C11.58542097 274.57159213 14.30954377 276.29710971 17.49609375 277.9296875 C17.99238281 278.28289062 18.48867187 278.63609375 19 279 C19 279.99 19 280.98 19 282 C-16.64 282 -52.28 282 -89 282 C-88.505 280.02 -88.505 280.02 -88 278 C-86.30959404 277.07193399 -84.61710051 276.14728487 -82.91015625 275.25 C-76.98382334 271.37182714 -73.88734053 264.6159585 -72 258 C-71.60389695 254.92606004 -71.59380496 251.89854633 -71.61904907 248.80221558 C-71.6143691 247.90939916 -71.60968913 247.01658274 -71.60486734 246.09671128 C-71.59295789 243.1227514 -71.60235867 240.14925578 -71.61181641 237.17529297 C-71.60774897 235.0360894 -71.60240612 232.89688793 -71.59588623 230.75769043 C-71.58222905 224.96037296 -71.58750433 219.16321596 -71.59702349 213.36589575 C-71.60462634 207.29618241 -71.59757291 201.22648268 -71.59286499 195.1567688 C-71.58741011 184.9666294 -71.59459295 174.77655527 -71.60888672 164.58642578 C-71.62522143 152.8052329 -71.61991762 141.02419571 -71.6034075 129.24300659 C-71.58979551 119.124775 -71.58787132 109.00659029 -71.59572351 98.88835251 C-71.60040046 92.84639885 -71.60102404 86.80451839 -71.59111404 80.76256943 C-71.58245058 75.08424331 -71.58845512 69.40611812 -71.60579681 63.72781372 C-71.60976457 61.64368142 -71.60862269 59.55953223 -71.60200882 57.47540665 C-71.59381504 54.63131494 -71.60408883 51.78786775 -71.61904907 48.94381714 C-71.61235691 48.11852442 -71.60566474 47.29323169 -71.59876978 46.4429301 C-71.65653416 40.78412435 -72.59387317 36.36951186 -76.796875 32.23046875 C-79.55486448 30.69010228 -82.17341867 30.01476313 -85.25 29.3125 C-86.32765625 29.06113281 -87.4053125 28.80976562 -88.515625 28.55078125 C-89.33546875 28.36902344 -90.1553125 28.18726563 -91 28 C-91 26.68 -91 25.36 -91 24 C-70.37569836 18.12035891 -49.72743357 12.32946621 -29.03564453 6.6914978 C-26.88819606 6.10585776 -24.7412214 5.51847751 -22.59472656 4.92935181 C-19.5710228 4.10014793 -16.54557435 3.27765095 -13.51953125 2.45703125 C-12.61390945 2.20755737 -11.70828766 1.9580835 -10.77522278 1.7010498 C-9.52100777 1.36333557 -9.52100777 1.36333557 -8.24145508 1.01879883 C-7.51525467 0.82103348 -6.78905426 0.62326813 -6.04084778 0.41950989 C-4 0 -4 0 0 0 Z " fill="#FFFFFF" transform="translate(1054,1589)"/>
<path d="M0 0 C7.61021333 5.18599215 11.79216732 11.7374071 13.75 20.75 C14.83777972 30.75350699 14.32019496 40.02465965 8.75 48.75 C2.7067454 55.85696092 -5.01982474 60.34597334 -14.25 61.75 C-27.27803694 62.71275324 -38.97457152 62.07448207 -49.46875 53.4296875 C-57.20016677 46.13909713 -60.17478665 37.72377267 -60.625 27.125 C-60.16942086 16.62769726 -55.80097372 9.19984097 -48.4375 2 C-34.48396334 -7.84955529 -14.7892622 -8.39166001 0 0 Z " fill="#FFFFFF" transform="translate(1038.25,1499.25)"/>
</svg>